<mxfile host="drawio-plugin" modified="2022-04-02T07:19:43.522Z" agent="5.0 (Macintosh; Intel Mac OS X 12_0_1) AppleWebKit/537.36 (KHTML, like Gecko) Chrome/89.0.4389.114 Safari/537.36" etag="dN50VvtwSR4lOrWAukdN" version="15.5.4" type="embed" pages="3"><diagram id="HZ5PTkVO8V3WAiPoOUBt" name="Page-1"><mxGraphModel dx="200" dy="618" grid="1" gridSize="10" guides="1" tooltips="1" connect="1" arrows="1" fold="1" page="1" pageScale="1" pageWidth="850" pageHeight="1100" math="0" shadow="0"><root><mxCell id="0"/><mxCell id="1" parent="0"/><mxCell id="3" value="" style="shape=image;verticalLabelPosition=bottom;labelBackgroundColor=#ffffff;verticalAlign=top;aspect=fixed;imageAspect=0;image=https://miro.medium.com/max/942/1*ahBuj8eiKkIALwvlxJdzeQ.png;" parent="1" vertex="1"><mxGeometry x="50" y="30" width="654.51" height="321" as="geometry"/></mxCell><mxCell id="5" value="&lt;h1&gt;Min Heap&lt;/h1&gt;&lt;div&gt;&lt;br&gt;&lt;/div&gt;" style="text;html=1;strokeColor=none;fillColor=none;spacing=5;spacingTop=-20;whiteSpace=wrap;overflow=hidden;rounded=0;" parent="1" vertex="1"><mxGeometry x="70" y="360" width="190" height="40" as="geometry"/></mxCell><mxCell id="LkDAKtwBrirJutX0IjDm-7" style="edgeStyle=orthogonalEdgeStyle;rounded=0;orthogonalLoop=1;jettySize=auto;html=1;exitX=0;exitY=1;exitDx=0;exitDy=0;" parent="1" source="LkDAKtwBrirJutX0IjDm-5" target="LkDAKtwBrirJutX0IjDm-6" edge="1"><mxGeometry relative="1" as="geometry"/></mxCell><mxCell id="LkDAKtwBrirJutX0IjDm-5" value="23" style="ellipse;whiteSpace=wrap;html=1;aspect=fixed;" parent="1" vertex="1"><mxGeometry x="280" y="550" width="80" height="80" as="geometry"/></mxCell><mxCell id="LkDAKtwBrirJutX0IjDm-6" value="10" style="ellipse;whiteSpace=wrap;html=1;aspect=fixed;" parent="1" vertex="1"><mxGeometry x="170" y="690" width="80" height="80" as="geometry"/></mxCell></root></mxGraphModel></diagram><diagram id="NvIYtIyWBHS_04fw9XpK" name="Page-2"><mxGraphModel dx="776" dy="645" grid="1" gridSize="10" guides="1" tooltips="1" connect="1" arrows="1" fold="1" page="1" pageScale="1" pageWidth="850" pageHeight="1100" math="0" shadow="0"><root><mxCell id="hDmsqmJ-rxW2WNkvrbdr-0"/><mxCell id="hDmsqmJ-rxW2WNkvrbdr-1" parent="hDmsqmJ-rxW2WNkvrbdr-0"/><mxCell id="hDmsqmJ-rxW2WNkvrbdr-2" value="" style="shape=image;verticalLabelPosition=bottom;labelBackgroundColor=#ffffff;verticalAlign=top;aspect=fixed;imageAspect=0;image=data:image/png,iVBORw0KGgoAAAANSUhEUgAAAuQAAAGyCAYAAACsm9ESAAAgAElEQVR4AezdB3Rc1dU3/Dzf+yQhhBJICAkEUiCEkEAKCYGQAC89oeOAwbgbd8uS1XvvdTTqvXfLkmVLtmSrd0tucpFsy02We6/Ypvy/tQ8Rr0MsN03TzH/W8pI85Zbfubp3z7n77PMN8EEBClCAAhSgAAUoQAEKGE3gG0ZbM1dMAQpQgAIUoAAFKEABCoABOQ8CClCAAhSgAAUoQAEKGFGAAbkR8blqClCAAhSgAAUoQAEKMCDnMUABClCAAhSgAAUoQAEjCjAgNyI+V00BClCAAhSgAAUoQAEG5DwGKEABClCAAhSgAAUoYEQBBuRGxOeqKUABClCAAhSgAAUowICcxwAFKEABClCAAhSgAAWMKMCA3Ij4XDUFKEABClCAAhSgAAUYkPMYoAAFKEABClCAAhSggBEFGJAbEZ+rpgAFKEABClCAAhSgAANyHgMUoAAFKEABClCAAhQwogADciPic9UUoAAFKEABClCAAhRgQM5jgAIUoAAFKEABClCAAkYUYEBuRHyumgIUoAAFKEABClCAAgzIeQxQgAIUoAAFKEABClDAiAIMyI2Iz1VTgAIUoAAFKEABClCAATmPAQpQgAIUoAAFKEABChhRgAG5EfG5agpQgAIUoAAFKEABCjAg5zFAAQpQgAIUoAAFKEABIwowIDciPldNAQpQgAIUoAAFKEABBuQ8BihAAQpQgAIUoAAFKGBEAQbkRsTnqilAAQpQgAIUoAAFKMCAnMcABShAAQpQgAIUoAAFjCjAgNyI+Fw1BShAAQpQgAIUoAAFGJDzGKAABShAAQpQgAIUoIARBRiQGxGfq6YABShAAQpQgAIUoAADch4DFKAABShAAQpQgAIUMKIAA3Ij4nPVFKAABShAAQpQgAIUYEDOY4ACFKAABShAAQpQgAJGFGBAbkR8rpoCFKAABShAAQpQgAIMyHkMUIACFKAABShAAQpQwIgCDMiNiM9VU4ACFKAABShAAQpQgAE5jwEKUIACFKAABShAAQoYUYABuRHxuWoKUIACFKAABShAAQowIOcxQAEKUIACFKAABShAASMKMCA3Ij5XTQEKUIACFKAABShAAQbkPAYoQAEKUIACFKAABShgRAEG5EbE56opQAEKUIACFKAABSjAgJzHAAUoQAEKUIACFKAABYwowIDciPhcNQUoQAEKUIACFKAABRiQ8xigAAUoQAEKUIACFKCAEQUYkBsRn6umAAUoQAEKUIACFKAAA3IeAxSgAAUoQAEKUIACFDCiAANyI+Jz1RSgAAUoQAEKUIACFGBAzmOAAhSgAAUoQAEKUIACRhRgQG5EfK6aAhSgAAUoQAEKUIACDMh5DFCAAhSgAAUoQAEKUMCIAgzIjYjPVVOAAhSgAAUoQAEKUIABOY8BClCAAhSgAAUoQAEKGFGAAbkR8blqClCAAhSgAAUoQAEKMCDnMUABClCAAhSgAAUoQAEjCjAgNyI+V00BClCAAhSgAAUoQAEG5DwGKEABClCAAhSgAAUoYEQBBuRGxOeqKUABClCAAhSgAAUowICcxwAFKEABClCAAhSgAAWMKMCA3Ij4XDUFKEABClCAAhSgAAUYkPMYoAAFKEABClCAAhSggBEFGJAbEZ+rpgAFKEABClCAAhSgAANyHgMUoAAFKEABClCAAhQwogADciPic9UUoAAFKEABClCAAhRgQM5jgAIUoAAFKEABClCAAkYUYEBuRHyumgIUoAAFKEABClCAAgzIeQxQgAIUMBGBc+fO4cDBg+jr24Ku7m40NjWiZkUNllYuRWnZIhQWFWHxksUoW1yGwuJilJWXoXJZJVbUrkBTczNWr1mLbf3bceTIUVy4cMFE9oqbQQEKUIACVxNgQH41Ib5OAQpQQE8C589fwMlTp3Do0GHs2bMHPRs2oLa+FvnFedDGR8I30A1OHjaYbz8T0+dOxIRpY2Ht+DHm2U7FxI/HYqbVZNg4zoaLlx38gz0RnxyDkkXFKjjv7e3F3r17ceTIEZw+fRoXL17U015wsRSgAAUoMFIBBuQjFeTnKUABCtygwPYdO1BdswKx8fGwtlmAGbNnwMZhNiISHBGb4YSEHEekL3RF3lIPLKz1xpJWf9T3hKN2bSgqmv1QssILORXuSC12QVy2I2IynBGkscdsq5mYPmsmnFxckZqejsbmZgzu3XuDW8mPUYACFKCAvgUYkOtbmMunAAUocInA/gMH0N7RgazsLMQlxUATF4jIBHdEJNkhNssemWVuqGj2x7LOQNSsDkZ9TyiaeyPQsT0Kqwe0WL8/Duv2xaJ7txbt26LQtDkcdetDUd0dpD6zqN4XqSUu0KbbIyLRAZEJntDEhSAxOR5FxUVYu249jh49dskW8VcKUIACFDC2AANyY7cA108BCpi9wPnz53H48GH09vWhesVyxKdEY4HLdHgEzEZUsi3yqzxQ1xOK7gEtNhyM18m/VTujUd0VhKxyV4TG2cDVT1Jb5iM9OwUNjfXo7+/H8ePHmcpi9kcfd5ACFBgNAgzIR0MrcRspQIFRLbBncBBLllZirpUVrGxnIjTODrXrQtGxXYM1g7Gqx7tnfxw2HNBNMC5Bfc+B+C970/fGYs2eGLRuiUJ5oz+8gq0w13oG3Nw90NzSisOHj4xqW248BShAAXMQYEBuDq3IfaAABUxS4MyZM6itq0VKehLCon0Qm+GMvKVeqO4KweqBGBUw66pH/GrLkTQX+QKwtC0QWWUe0Ka6IiTCD1m5Gehc1WmSftwoClCAApYiwIDcUlqa+0kBChhM4NNPP8XugQGsqK1BckYEIhNcEJ/jiBVrgtG1S3dpKVcLwod7XQLzJS0BiEiyRVSiO7LyE9Dc0oxDhw7h888/N5gTV0QBClCAAl8KMCDnkUABClBARwJffPEFPvvsM5WbnVeQj3GT3kNasTMaN4brJC98uAB7JM/LwNHIZBu8NeZt1NXXQXr1ZT/4oAAFKEABwwkwIDecNddEAQqYuYDUFN+4aRPCIyMRFOmE/CpPNG0KVzncIwma9flZqdayYk2Iqu7iFeCIlLQ07Ni5E5+c/8TMW4u7RwEKUMB0BBiQm05bcEsoQIFRLHD23Bn0bFyH5PQEVQs8s8xVpadImUJ9BtS6WPa6vV/ml8dm2yFU64bcgmzs3L0d5xmUj+IjkptOAQqMJgEG5KOptbitFKCAyQlIzrVMU9+/vQ9FpVmY7zQZy1cFmXwQPlwgX1TthQXO01FdW4HBvbtVWUSmsJjcYccNogAFzEyAAbmZNSh3hwIUMKyA5FzLNPWxiRpEJjqrSXqkgspwAa+pPy/1yyvbg+Abaoec/Ezs3LmTtcoNe0hxbRSggAUKMCC3wEbnLlOAAroRkGoqW7ZsQWh4OLSp7iit9Rm1gfilXxSkbnnOEndEJXghJTVVVV+Rwap8UIACFKCAfgQYkOvHlUulAAUsQGDPnj0oqyjF5BkfoGSlt1kE45cG5kkFDrC2n4Wm5kY106gFNCl3kQIUoIBRBBiQG4WdK6UABcxBICM7C3aus1DR7I/O7RqzC8ib+yKQu8QDs+ZPw/KaanNoMu4DBShAAZMUYEBuks3CjaIABUxZ4OTJE6itX4mEjBDE5zpA8q7X7zP9aiqX9n5fy+9r98aivicM4UnWyMiPQWdXOz777FNTbhpuGwUoQIFRKcCAfFQ2GzeaAhQwlsAnn3yCvi29CAzzQWqhpxrE2XPA/ILxoYBd8smru4MQk+GGxNQYHDp8iIM8jXXwcb0UoIDZCjAgN9um5Y5RgAL6ENgzuAdLqhZjvsN05CxxQ8+BeLNLVRkKxod+yj5qM23h7uuA1rY2HDl6VB+0XCYFKEABixVgQG6xTc8dpwAFbkRAppf3DXJFQq4TVqwJNvtgfCgor2j2Q3SaE7z9PdGzoedG6PgZClCAAhQYRoAB+TAwfJoCFKDApQJS9u/QocOqNred2zRUtgega1e0xQTkHf0aFFR5Ysa8iVhWU4Xjx49fysPfKUABClBgBAIMyEeAx49SgAKWIyC5441NzYhJDEOgdh4kQB3qPbaUnzXdwXD0moa0rESsWbvWchqfe0oBClBAzwIMyPUMzMVTgALmIXDixAmERoQhItEZle2BWDsYa3EBeecODUrrfRAQ4YisnCzzaFjuBQUoQAETEGBAbgKNwE2gAAVMW+DM2bPo7euFs7sDYjIc0LVbC3OurDJcj/+6fbGQoNwvYh7Co0Kw/8ABnL9wwbQbj1tHAQpQYBQIMCAfBY3ETaQABYwrMDi4F0urKuHua4uMUleL6xn/eoAelbwAQeFeaGpuwbFjx4zbOFw7BShAATMQYEBuBo3IXaAABfQr0LNhAzQxUQhPcERZg6/FB+Q5FW6IiHdDYnIyBvbs0S8+l04BClDAAgQYkFtAI3MXKUCBkQk0NDZivu1cpC90Q/2GMIsPyJevkomCnGG9YAF6e3tHhstPU4ACFKAAGJDzIKAABShwBYELFy5gccVijJv0HhbV+6J7QGvxAXnnjmikFrvgvQ/eR+eqVZy58wrHD1+iAAUocC0CDMivRYnvoQAFLFLgiy++wN59+5BbkItpc8ahuivYImbm/HrO+Nf/LwNapSb5BxPGYnlNNY4cOWKRxwd3mgIUoICuBBiQ60qSy6EABcxO4PPPP0f36jXIyE2EX+RcNG4Kt/je8aHgfGlbAFz9Z6GoNA99W7aYXdtzhyhAAQoYUoABuSG1uS4KUGBUCUhAXrVsGeLTQpGY74C2rVF6CcjX7o1Bab0bkousoMmYedl/uZUO6N4djbqeIBRWO132PZd+trLDR71/KIDW9c+Va0OgSbNFYno02trbR1W7cmMpQAEKmJoAA3JTaxFuDwUoYDICn332GXLzcxES7Ya0Eie0b9NPQN62LQLjpj2H+35+F77xjW/gf/5H/v3Pf/x77pXHsHJdIKIzZ+K1MX/+93uG3vvlT/ns0D977zFYsTZAL18gJLivWx+K2Cw7BEd4Ynn1MpNpM24IBShAgdEowIB8NLYat5kCFDCIgATkyWnJCIhwQP4ydzUpjq57mmV5rVvDMWb80/jRvXfglltvwt9eeASvvPVHvPrW41/9s/V4By194chcbIvZdv/EY4//7L/+3Xv/93Hzd7+tgnLngPdRvyFEbwF506ZwpJc6wTvIHuWLywzSHlwJBShAAXMVYEBuri3L/aIABUYs8OmnnyI6Jhq+oTYob/RF1y79VFhp3RKO1//1BO66+zbcc/+dcA/5QPWES2/40L+8qi9TVpZ3+yGleD7cg8d+9c8l4D1Yu76FPz/9S9z5g1tUT3tY8sfo2K6fHn31JWJLJAqXe8DFex4KiwpGbM0FUIACFLBkAQbkltz63HcKUOCKAhKQB4cGwyt4Lqq7grB6IEYvPc4tfWF46Y3f4867bsGvfnsvile6oKk3FI2bQtTPzh1RkDzz4XrnV+2MQlGNs+pV/8lPv48xE55G0QrnYd8/3HKu5/nOHRpUtPhhgct0ZGRnXtGRL1KAAhSgwJUFGJBf2YevUoACFiwgAbmntzfc/GeiaXM41u6N1UuQ29wXhmde+g1uv+O7+PFP7sS7H/0Vr7z5R/z1uV/j1bcfh0/keCxu8Rx23cu7fFUO+oO/vkf1kmdV2EKC/OsJsK/3vVKPXQZ2zrWbpGbstODDhLtOAQpQYMQCDMhHTMgFUIAC5iogAXlAcAACoueje7cW6/fH6SXIbe4NxV/+/ivc9J1v4dbbb8Zvfv9TPPzofbj/53fh+z+8FU8+8zAcfMZA3rdm8D97yus3BCMqfTp+/dh9eOSx+zFp1gto2RJ2xR716w2+L/f+dfti1SBXB8/pSMtMM9dDgPtFAQpQwCACDMgNwsyVUIACo1FAAvLwqDBEJNlh3b44vU0KpFJWXv897r3v+/jZg3erQZ1vvPcEXnzt9/jBD2/DTTd9E089+zAkj1wqsgwFyD0H4pG12BYfTX8Ot91+M1564w+ISp+B9fv105M/tF75KZMDyZcUj8C5yMnLHo3Ny22mAAUoYDICDMhNpim4IRSggKkJDKWseATNQnt/FKRX+NKgVFe/d+3SICptuhrMGRQ3BYubPVSJw5yl9nhv0t9x38/uwkO/uRf23u9C0lOG1ivb4xo0Fj//5d347q03Yb7rm5AecwnUh96jr5/SU9+4MRzz7CVlJcnUmo7bQwEKUGBUCTAgH1XNxY2lAAUMKSABuV+APzwCZ6u6219PF9FVsCuBtdQMl8l8VqwJwOo9WtUDLc+5BLyvUlF++sAPMXnOC6ho/TKXXLalotVL5Y5LZRVJWQlNmvpfKS262savL6drVzSWdQbC2nEqUtOZsmLI45LrogAFzE+AAbn5tSn3iAIU0JGABOQRURHwCZ0PmSpeUjS+HpiO9P/r9saiY3skyhrdVXWVpW3eWLPny/XUrg+Ed8RH+O0ffoqf/uKHmDT7BVT8e3CnVF6JSP0Yz7z0W9z5g1vxzodPIavCTufbN9z+yR2D0jpvOHrMVpMn6Yici6EABShgkQIMyC2y2bnTFKDAtQjIxEDxiXHwj7BF8UovrNoZrfOAt70/AsUrnfH2h0+pSiuT57yIho3Baj3SYz7V6mWVkvLQI/fC1usdLPt3yorknc+0/YdKZZEJgVwD38fSdm+db99wAXlzbwRyKlzh6W+LhYsWXgsn30MBClCAAsMIMCAfBoZPU4ACFJCAPDM7E8EaZ2QvdkFHv0bnAe+aQS2qu/3wj7cfx/2/uAu/fOQeTJr9Iqxd38SEGc/jwYd/jDu+fwv+/uJvkb/M8atBnQ0bQ/D6e0/ghz/+Hn72wN3QZs5U+ePDBdC6fr5hQxiSChwQEOqGpVWVPFgoQAEKUGAEAgzIR4DHj1KAAuYtIAH5ovIyRCf4I6XISZX503VgK9VKpJfcxv1tPPnMr3DPfXdC6ok/8rv78avf3Isf/uh7+NNff4kF7u+gvT8SkuIi21C7PghPPfcwbr7l23jw4XuQW+mgUl90vX3DLa92XSi0GXaIjg9BfWODeR8I3DsKUIACehZgQK5nYC6eAhQYvQKff/45GhubkZYdi7hsR7Ru0c9U9Ov3xaoA2y96Ap579VFVf1x6vqV6yrMvP4rg+Clq0OelwXHtukAVqH/3lpvw2OM/x5JWL4MN6JTtWLE6RJWDzMpPxZq1a0dvI3PLKUABCpiAAANyE2gEbgIFKGCaAl988QW2bt2G7LwMLHCdhtp1+pn9UsoUrh7QQgZxFq90gcy0mVG2ANkVdur/dT1B6B74z/x1eX/BciekLrRGXpUjVu3UqMoslwbt+vy9tNYXM60mYfGScuzZM2iaDcitogAFKDBKBBiQj5KG4mZSgAKGF/jiC+DEiRMoKS3BxI8/wJKWAKwd1E8tcn0Gz7pe9uo9Mcgqd8PYcWPR1NyEM2fOGL5xuEYKUIACZiTAgNyMGpO7QgEK6EdgeXU1Jk79CPmVXnrJI9d1wKzv5TVtDkdCrhPGT5yI9T09+kHnUilAAQpYkAADcgtqbO4qBShwYwKrurrg7e+J2ExnVHUG6rzSir4DaF0vf2GtN6KSXOAfFIjt27ffGCo/RQEKUIACXwkwIP+Kgr9QgAIUuLxAf38/cvNz4B9uj4KqL2fK1HWQO5qWl5jniBCNBxaVl+PAwYOXR+OzFKAABShwzQIMyK+Zim+kAAUsVeDo0aNo72iHs4cdEvOcviw9eCDe4nrKpUSj5NAHaecjONwfm3v7mD9uqX8U3G8KUECnAgzIdcrJhVGAAuYoIOUPpSfYydUJ4Ym2aN0ahfX74ywuIF8zGIOmTeHwDJwDjTYKFy9ehFSi4YMCFKAABUYmwIB8ZH78NAUoYCECp8+cQUFRETSJfkgtdkHXLq3FBeSNG8MRnWYHbWIIqmtqLKTluZsUoAAF9C/AgFz/xlwDBShgBgLSG9zXtxWpGYlw85+F+vVhWPvvWTNHU/73jW7rmj0xKG/0xzy7qVi4qBi7dg+YQatyFyhAAQqYhgADctNoB24FBSgwCgQkPaN0USnm2U5DSY032rbqZ+bOGw2a9fm5xo1hSCt2xdTpU9DW3gZmqoyCA5abSAEKjBoBBuSjpqm4oRSggCkI9GzYgPSsFPiG2qCs3s9i0lZkIqDASGfkFxZg9+7dptAU3AYKUIACZiPAgNxsmpI7QgEKGELg2LHj6OjsgIePM7IWeaOjPxobzLjiyrp9cWjdEoXYDFeEa0KwZetWVlYxxIHGdVCAAhYlwIDcopqbO0sBCuhC4OChg0hNS0FKbgAWNwVAglZzDMp7DsSjc0c0Cqu9kZgZrNJ1JJeeDwpQgAIU0K0AA3LdenJpFKCABQhIULpv3z4kpsbCI3A2GjdFQEoC6jOH2xjL7tqtRUWLP2ycp6JkUSEOHT7EMocWcHxzFylAAcMLMCA3vDnXSAEKmIlAS2srYhIjEaidh+quILMLyEvrvBGktUViSjw2bNxoJq3G3aAABShgegIMyE2vTbhFFKDAKBG4cOECVq1ahfETJyGl0BWtWyPNIiiXSY+aNocjLMEWC+zsMTAwgM8++2yUtAo3kwIUoMDoE2BAPvrajFtMAQqYiICUQTx8+DBWrKyFp78jQuLnmkVA3rldA2efKQjTBKK9oxNnz55lqoqJHHPcDApQwDwFGJCbZ7tyryhAAQMIHD9+HF1dXQgPj8CkqRMxbc77iMm0Vb3Lxsj51sU6l3cFISR2HsaOfwuz585Caloatm3bxsoqBjieuAoKUMByBRiQW27bc88pQIEbEDh//rzqFe/t7UVNTQ3i4+Mxa9Ys2NhYw97RFo7u1sha5IHa9aFqJk+pVKKLQFmfy5AUFZmJU/LgE3NdYedsDVs7G1jNt4K9vT2ys7PR3NyM7du349SpU/j0009vQI4foQAFKECB4QQYkA8nw+cpQAEKXEZgcHAQS5YswdSpU/HKK6/go48+Qn5+PrZu3Yo9e/agobEBs61mwytkBlr6IrBuX6zJB+SrB7So3xCGeQ7j4erhiu413Th46BBWr14NrVaLl19+GW+88Qbc3NzUc3JngA8KUIACFNCdAANy3VlySRSggJkKHDt2DGvWrEFCQoIKSqXXODQ0FDk5OWhoaMCuXbtUnvX5Cxdw6NAhNDQ2IiE1Ct6hs7Go3gdt26JMNiiXwZs5S9zh7D0dmbmp6Fy1CsdPHFe94CdOnEBfXx+WLVuG1NRU+Pn5wcrKSv0sKSlR+33u3DkzbXXuFgUoQAHDCTAgN5w110QBCowigU8++UTVGpcc8UWLFiE6Ohq2trbqnwTjLS0tKvi+3C5J9ZXWtlaERAQiOdcHBZW+WNoWqALztYPG7zFfvScGTZsjUN7oj5zFPojP8EVwaDAkDWe4dBT50lFRUQEnJyfY2NjAw8NDBenV1dXYvHkzJHhnJZbLHQ18jgIUoMDVBRiQX92I76AABSxIQCqnSGApqSmLFy/GpEmT8Nxzz+Hdd99FQUEBdu7cec0aktqRmpECR9cFcPScgZIV3mjdEgnJ2dZnTvhwy5Z8dll3w4YwZCxyxWybSXDzcsKi8tJr3id5o6SyhISE4Mknn1RpOz4+Puo5yS///PPPWZHlujT5ZgpQgAIAA3IeBRSgAAX+LXDy5ElVVzwyMhLz5s3DnDlzIL+XlZWhu7sbe/fuxfWkaMiMngN7BtDc2oTM3DS4+ljDN9wKqSUuqma5IXvLJU985doQxGQ6wCvYCn7BzigsKcCqrk7sP7D/uo4B6Q3v7+9HU1OTGvDp5eWFjz/+GM7OziguLlZfWobrab+uFfHNFKAABSxEgAG5hTQ0d5MCFLi8gKSX7N69W+WCZ2VlqdxwV1dXuLu7Iy4uDh0dHaqqyuU/fW3PSk/5+p4e5ObnITZRA02iL+JznJBV5o7SWl9UdwejfVsUdBmgS1qKDCqt6ghEcY030he6ITbDBZFxAUhIjsOisjJs6+/H6dNnrm0nLvMu6Q3fsWOHGuQaEBAAFxcXSG+5uMmXmJ6eHkj+PR8UoAAFKHBlAQbkV/bhqxSggBkKSFqKlC+Unl4p5Se9utIbLtVEJEWlsLBQDVjUx65v3bYNhUVFmGM1F/MWzIKb3zxoMxxQstIHK9eGon2bBl27tOjercXqgRisGYxR5ROlWotKdTkQj6HUE3lu7d5YVbJQesDlM6t2RqNta5QK8vMrPRGRZAtHjzmYaz0LDs7OqKxahj2DgzrfNcm5l1lLJTB/88038fbbbyM8PBytra3qC82ZM2eGzU/X+cZwgRSgAAVGmQAD8lHWYNxcClBg5AJq0GVrKwIDA/Hee++pdAuNRoMVK1Zgy5YtKoCUgF0fDwlcDx85gu07tqOxuRF5hTkIifCHld0MzLaZCEevjxGfY4+MRS7IW+qG0jovVHUEoK5HgvWorwJwyUWvXReCpW3+KFnpiZwKV6QvdEZksg2snSZjlvVE2LnMQ1RMGEoWFaO9o119yTh27Dhk/3X9kN7y06dPq9KPkt4jX2ocHR0xfvx4Vad94cKF15V/r+vt4/IoQAEKmLIAA3JTbh1uGwUooFMB6Q2vqqpCVFQU/P39IbnP0qMr5QsliJT0Cuk9N9TjyJGj6O3rQ1NzMxaWliI9MwMJKXFIzopETIofwuNcERrrgJBYWwRrrRGktVKpLjEZDur3YK2Nei001hHhcW6ISw1AUkYUEpLikZmdhcUVFWhrb0f/9u04ceKkoXZL3X2QqixiHRMTo5y9vb1Vj3leXh7WrVuHo0ePGmx7uCIKUIACpi7AgNzUW4jbRwEKjEhAem2lYsrGjRshwaCdnZ2qDGJtbQ2ppb1v3z6TSaU4eeqUyuuua2hAYXExEpISEBYRBm9fbzg4OWKulRVcPV3g5OqEefPnw8nFGb7+vojQRCApJRkLSxehpbUNAwMD1zX4dETAV/mw5M9LKot8AZJ0IOkxlyC9rppG1joAACAASURBVK5O5Z/LlyB99NhfZbP4MgUoQAGTEmBAblLNwY2hAAV0LdDW1gbpnf3Tn/6EcePGqd5x6Q2XIH1oGnhD9opfaf8k7UMqs5w9d05t2/ETJ1Sv/ZEjR3Do8GEcPHgQh48cVik16vfDh3Hk6BH1HsmHly8f5859or5gmNI+SZqO9Ihv2LBB5evPmjVLlZGUyixSWlJmOOWDAhSggCULMCC35NbnvlPATAUkNUUm85FKKVIxxdfXVwXiUvlj/fr1KnDlJDaGb/yzZ8+qijaSq5+eno6goCDVPjIDqPxf2kZ61PmgAAUoYGkCDMgtrcW5vxQwUwGpIb5161Y0NzcjMzNTleB755131MySEohLD630PvNhGgKHDx+G3L2QgbVS4cbKykqVS1y2bJlKL5LXmcpiGm3FraAABfQvwIBc/8ZcAwUoYAABSUOR3vBf/epXeOmllxAREaEmrzG1tBQDUIyKVUhKjdylkKB727ZtyM/Px7/+9S+88MILquqNBOaHDh0aFfvCjaQABSgwUgEG5CMV5OcpQAGjCEi+tUxjL4Gc9K5KXvJQ6oOkRPT19amBjfI+PkxbQFJZZCBqS0sLCgoK1ORMMuhWyiYmJyerVBapY84HBShAAXMVYEBuri3L/aKAGQpIcC05xlI2r6KiAvHx8fDw8MD06dPVz6VLl6oBj8wPH72NL4NVm5qaEBYWpiriODs7Q6vVorS0FF1dXdi/f7/JVMUZvcrccgpQwNQEGJCbWotweyhAgf8SkEBcUhukkogEZTJYU6qm/PWvf1W1rWX6dlOpKvJfG88nbkhA2lMG58pgzzFjxuCZZ56B9JpLKotUnZHjgV+8boiWH6IABUxQgAG5CTYKN4kCFPh/AjJj5u7du9VATUlLGTt2LHx8fFT5PKlvLRPQnDt37v99gL+ZjYC06969e7F69WrIwNzg4GCVmiTlEhMTE1UqC1OSzKa5uSMUsGgBBuQW3fzceQqYpsCnn36qUlM6OztVjnhoaKia7dHFxUUFZdXV1Thw4IBpbjy3SucC0hMuAzwllUXSlGTwrqenpxq4m5WVpaq1yARPfFCAAhQYrQIMyEdry3G7KWBmApKiIGUJJUdcUlAk+JL64VK6UKqmREdHY9OmTWa219yd6xWQOyaSyiKDPSdPnoznn39ejR+orKxUEwzJ8SPv4YMCFKDAaBJgQD6aWovbSgEzFpDZHGXGxpSUFEybNg0vvviiCrRkJkepLy6D/eQ9fFi2gHxxk4Bb6pRv3rwZcrdEvriNHz9efXlLSkriFzfLPkS49xQYlQIMyEdls3GjKWAeAtIjLgP0pDdcejzd3NxUaorkCickJKCxsVHlEJvH3nIvdC0wdPxIuUSZDErKXnp5ecHf319NMiTHlVRl4YMCFKCAqQswIDf1FuL2UcDMBGQQnvR0S6AkU6VLqkFAQACmTp2qejglR1ie54MC1yMgdcr7+/vVFzkZ/CuTDMksoFIeU1KdZMwB77BcjyjfSwEKGFKAAbkhtbkuClBAlasbCpw+/PBDVbrQyckJVVVVKg3h9OnTnOKex8l1C0gqiwwGluNHKu/U1dWpiYVee+01vPHGG0hLS1MB+3UvmB+gAAUoYAABBuQGQOYqKGDpAtIrLj3iK1euRGRkJOzt7VV+uEajUTMzSjUVphZY+lGiu/2XGuWSY97R0YGioiJ1zEk6lEwyFBERoVKkJFWKDwpQgAKmIsCA3FRagttBATMUkN5Kmd6+tbVVBd6SQjBv3jw11X1qaip6eno466IZtrsp7ZIcg5KyInXLZWKhmTNnQspolpSUQL4IykBiVmUxpRbjtlDAMgUYkFtmu3OvKWAQAamCERcXh5dfflmlpsyfPx+1tbUqrUBSDPiggKEE5HiTXnG5SzN9+nT88Y9/hKSzSB1z1rQ3VCtwPRSgwHACDMiHk+HzFKDADQlIj+Py5cvV9PbSGy5pAtI7KTni0iMuqQSS68sHBQwtIKksMsHQ2rVrsWTJEsTGxqr0KZn5Uyr7SFUWGRzKBwUoQAFDCzAgN7Q410cBMxQ4efIktmzZogJxGTwnVVMWLFgAb29v5Obmore3F2fPnjXDPecujVYBCbylmo+kTsmYBgcHB5XKIj3mDQ0NamCozBDKBwUoQAFDCDAgN4Qy10EBMxSQYEXKyEkwvnr1alVu7s0338Trr78OOzs7NDc3qxQBM9x17pIZCciA42PHjqkecymX+Ic//EHNAFpQUKAGGksOuvSs80EBClBAnwIMyPWpy2VTwIwFBgcHVQ1x6QmfMmUKbGxs1OQscttfpjY/ceIEyxeacfub065JCpXkl8udnPr6epXKMnv2bPzzn/9Ud3tkUDIfFKAABfQpwIBcn7pcNgXMTEB6wzds2KAqVERHR8PHx0flikspudLSUmzbtk0N2DSz3ebuWIiA9JZLapXkmOfk5Khj29PTUwXlUqKzurpapbJYCAd3kwIUMKAAA3IDYnNVFBiNAtJ7KL3dAwMDqnyhTGk/fvx4jB07Fq6urio1RQZq8kEBcxKQ416+gMoXzblz5+KJJ55Q4yKkrrmMl5DKLBwXYU4tzn2hgHEFGJAb159rp4DJC0hVivLyclW/WWY8lDrOeXl5qhfx4MGDKijh4DeTb0Zu4HUKSJlE6TGXoFy+jEqveVRUFD744ANVwlMGLnd3d1/nUvl2ClCAApcXYEB+eRc+SwGLFpCevzVr1qiccElL8fDwgL+//1flCyVHnOXhLPoQsaidl8BcBjBLUF5cXKyqscjfhcz+KYF5ZWWlmmDIolC4sxSggE4FGJDrlJMLo8DoFZCgQ3rDZVbDFStWICYmBlJ1QtJTJBhvaWlR1ShG7x5yyykwcoGhAaASmFtZWeGtt95SueaFhYVYtWqVyjFnKsvInbkECliaAANyS2tx7i8FhhE4d+4cFi1ahEmTJuF3v/udqpwiQcbOnTtVb/jFixfB2TWHwePTFiUgfwfnz59XYytkkLP0kj/77LP485//rCYY6uvrsygP7iwFKDByAQbkIzfkEigwagUksOjq6lLT20tuuKOjI8LCwtRkPlK+cPfu3epW/ajdQW44BfQoIHeVpE65BOVLly5Vtfi9vLwgJRMlnUVmA+WAZz02ABdNATMSYEBuRo3JXaHAtQrs27cPnZ2dWLhwoRqoZmtrqyZDkUFrbW1tKsiQYIMPClDg2gTk70Vq80sVFqnNP336dPj6+qpxGLW1tdi6dSu/3F4bJd9FAYsUYEBukc3OnbZEAQkYJP9VbrVL1ZSJEyfitttuw4cffqiCCOnpY7UUSzwyuM+6FpC/tXXr1qmyoA899BCefvpp9cVXqrXIrJ/8O9O1OJdHgdEvwIB89Lch94ACVxSQtBQJxCU1JTw8XA1Ck1vq0hsut9mlmor0mMt7mCN+RUq+SIFrEpC/IymXKPXKGxoakJGRAWdnZ7z77rtwcnJSVVmkShH/3q6Jk2+igEUIMCC3iGbmTlqigATY0iMnU4GnpqYiJCRE9djJJCfx8fEqZYVBuCUeGdxnQwvs2LFDzW4rwbiDg4OqWiRVjCTHvLe3l1+GDd0gXB8FTFCAAbkJNgo3iQI3KiA9bpKScuzYMUgQMDTLoFRNmTBhgqqhLNVU+KAABYwj0NraqnrLH3nkETXbbWJiIvr7+1XJUSmXyF5z47QL10oBYwswIDd2C3D9FNChgNwGl1rIUobtzTffVDXENRqNmt5+27ZtOHLkiJp9UIer5KIoQIHrEDh16pSqXiQ55llZWZg3bx7+8pe/qJ7z5cuXq4GfHFB9HaB8KwXMRIABuZk0JHfDcgVkBsFdu3apfHAJvr29vdU/mcwnOzsbq1evBnvFLff44J6broBUXpEB1vK3KjN/yt+u/C7VjySVRQaAssfcdNuPW0YBXQowINelJpdFAQMJSJUGqYqyZ88eNVizoKAAUrrwnXfegdQTlwv6wYMHDbQ1XA0FKDBSASmN6OLigueeew5z5sxR4z7kbpdMzCUDRNlrPlJhfp4Cpi3AgNy024dbR4HLCpw4cUIF4p6ennj99dfxxhtvQHrHpbb4oUOHVLDO0mqXpeOTFDBJAbmLJSllkk+enp6Ojz76CE888QTs7e1RV1enZstlb7lJNh03igI6EWBArhNGLoQC+heQAV/SWya930FBQepC7efnp2bZlCnvZbZA6UnjgwIUGL0CUvlIUlmqqqpUNSQZDyLVWTw8PJCfn69KKUqaGh8UoIB5CTAgN6/25N6YmYBcnCXI7uvrU71kmZmZ6ra2pKXIbICSfyppK3xQgALmJyADQKurq+Hu7q4GaEvJxJSUFKxcuVLlmB8/flyVTDS/PeceUcDyBBiQW16bc49HkYBccGVQpkwq8tJLL6kZ/yIiIrB27VpcvHhRzfjH29ijqEG5qRS4DgH525bUM/lbl7tjCQkJ6jwgqSzyhby9vR0StPNBAQqMfgEG5KO/DbkHZiYguaSSR5qXlwc3NzfMmDEDkpoiveMy8Etm/5Mccj4oQAHLEZDzwvbt29XMnzk5OQgMDMSsWbPg6OgI+b+8xmpKlnM8cE/NT4ABufm1Kffo3wJD6R6De/eqnMz169eju7tb9So1NzerFJDmpia0trSgtrYOjY1NaGtrU4MlpUZwb18fdu8ewNFjx9RkO/qElW2VAV3S87148WKVFy45o3KLWgZuVlZWqtrF+twGLpsCFBgdAlJBSVJZfH19VU+5nCvi4uLUuUPOXYZMZZEvAYcPH8aOnTuxadNmdQ6T6jAyAVJDQ6OaKbi9rRWNjV/+3tLSgo6ODnXnr2fDBmzr78f+/Qdw+vQZVpIZHYcft1JPAgzI9QTLxRpeQMqCSWArtXvPffIJDh0+jPU9PViyZCmSEpPg5+sDJwd7zJs9E5MnjseYd9/BlIkfYea0SXj3nbcxftyHmDXjY9gvsIG3lwe02mg13XVn5yrs2TOoep9kFkxZh65KkMntaFmmXNCamppUruirr76K559/HpGRkZCLKx8UoAAFhhPYvHkzoqOj8cwzz+CVV15Rgz+7urpU2VM5t8i5SldpbZem0MiyZaC5zAjc1NyMvNw8RISHw8PNFQusrTDj46n48IOxGPveGMybORUTxn2A9//1L0ydPBHz582Bq7MjAgMDVEWZmpoa9Pb2qTt/MmBVzuFybtTVdg9nx+cpYEoCDMhNqTW4LSMSOHjwEFZ1daO4pAShYeFwcXFWJ/2EMC/kaL2Ro3FHUawHypK8UJXmg5WZfugsCcWaRRGoz/bH8nQfLE72Qkm8J/Ki3ZGj9UJ6tC98PVzg4uwCH19/ZGXnoKmpGbt2D4z4YiGBvUz+kZGRgblz52LKlCmqx6uoqEjNtrl7925VvnBEKPwwBShg1gIyO+/AwIC6+yfnDplg6L333oONjY1KZRkcHFSzf+oCQYLwrdu2oWbFSiSnpMLVzR0uzk4I9nVDbqwfcqI9ka91x8J4TyxJ8UZ1hi+a8gKxviIKbYUhWJHhi8pUbyxK9ERhrAeyNe7IifGFJsgDrs5OcHFxRbQ2BosrlqCnZwOOH2dqni7ajcsYHQIMyEdHO3ErhxE4eeoUtm7dpqoOFBUWIC0pDgmR/oj2d0Csnw0ywx1V4N1VEoq1pWHYvCQK26u1GKyLx+GWZJxelY6zXRk41paCfQ0J2FkTg75KDdaXh0M+05wfhEKtKxICbKHxtUVcmDdS4jXIzcnC0iVLVQ/84SNHhtm6yz+9f/9+lTYjeZ8yQNPLy0v1akkd8RUrVqiqKbrqgb/8FvBZClDAHAWk4pL0NoeEhKhUN5n5MzQ0FIWFhSpgl7En0hFwPQ/pqZZzVldXt6rqlJWRhuSYcMSGeCDKaz6Sg+2wKMEDncUh6F4Yip7yCGyp0mDXilgcaEzE8fZUnOvOwMmONBxqTsKe2jhsW67FxopIrCkNRWdxqOogSQt1QLSPNbSBLkjUBCM9JRELS0pUB4ikDjI//npaje8djQIMyEdjq1n4NssFQlJShnKuC/Lz4GQ3H45W0xHmYYVF8e5YXx6hTv6frM6ELv5JwL51WTSWpXkj1n8BXG1mYu6MKUhKiEdrS6u6PXz6zJlhL3bSs3Ts2DHVk7Vs2TLViyUT+sjkH1qtVtUQl/fwQQEKUEAXAmvWrFFpb5L+Nm7cOAQHB0PytyXFRAJzqdxypZSQCxcvqpKrEuRLmcWo8FDMnzUVnnazkBrioO4qDtTGqUBbF+fYM13p2N+YgM7iYORrnOHnNAe2cz+Gj4eryo2X0q9yDpXzJDssdHGEcBmmJsCA3NRahNtzVQEZsNS9eg0iIiLh5uKICD8n1OcGobdSg4HaeBxsSsKJ9lTV862LC4Us42x3Bk51pqle9cH6BGxdpkXXwjCkhLvD09UR7u4e6jbu3n37Lrv9mzZtQnJyspra/sMPP/xqoKbkf8rMmpI3eaWL42UXyicpQAEKDCMgPcoy+HPbtm0oLS1Vkwu9+OKLmD17tqrgJKksEpQP95BBmgtLF8HR0Qnebg7Ij/XCuvII7KiJxb6GRBxpTVF3GKX3Wxfn2XOrMyFBuXR+SM/67pXx2FARiaVpfvBzs1cpLSkpqdi0uRdnz54bbrP5PAVGrQAD8lHbdJa54Zs2bsTiskVIiNEgOdwDRbHuaM4Pxt76BJxala6TC8O1XFzkwnG0NQXdpeEoT/JGcqgzEqNDUVSQh46OdjXN9b59+1SJMukBl7KFkpois+5JzrgM4Dxw4IAavGSZLcm9pgAFDCUgOeZSMlXqmMssv1K5SdJZ5FwkFVGkk2Oo11kGmNfX1SEnKwOJmkCkhzuhMs0XG5dEfZV+ci3nSF28R9JctlfHYkVmAHI1bkiK8EFyYhyWVVWqnn5D+XE9FDCEAANyQyhzHSMSkAuFTH4htyxL8rMRHeSBKG8btBcFq54UXZz4R7KMo63JKjc9PcwRUf7OSE/QoLOjHRUVFfAPCFADrKRXSi6GMiW2DMLigwIUoIChBSR/XAJwGbsid+pkjoOoqChVQlHu4skg86aGOsRGBCLS1wElce7YUaPVWVrKSM6zkntek+GHME8bxIR6o7KiVAXlksLCu4uGPpK4Pn0IMCDXhyqXqVMBSefo6OjExEmTkRbmjHXlkep2qaSQSCrJSE7yuvis3LKVwaHH2lLRWxmNRQmemPzRB3j//bFwcHRUveRSMUUCcbkg8uKh08ODC6MABa5DQEoKnj59Wo1nkVQWmVzoueeew4QJEzHuo4/gZD0TjbnB2LkiTvWIn+nKgKST6OJcOZJlyOB76THf35iEzuIwRPnYwtHJWc3PcKXUm+ug4VspYFQBBuRG5efKryQgFw7Jc1xYWoqoUH8UaF2wtjwch5uTjX5xGO7CIkH51qpoLIx1gd3siZg1ew7a29px9OjRK+0qX6MABShgUAEJYmXAptzJk4mF3nzzLfg6zEBNhg8G6xJwsjPNJM+z0gkjOeZthcHI0rgjNDhQVZaRfHl2dhj0EOLKdCzAgFzHoFycbgQuXryAA/v2YmnFYmiCvZEUaIO9DfFqYOVwwbCpPC89OVLeqzTODQFuC1CYl4Mtfb24cP4T3eBwKRSgAAVGKPDF55/jk3Nnsaa7C5mpifC0nYG6LD8cbUsxyUD86+d3GbgvpRODnGciXhOChrpanD51Ep9dZ1nHETLy4xTQmQADcp1RckG6FDh+7Ag6WhqwYN5MLEv3GRUXiK9fMOT/m5ZoMO/j8VhUXIBDBy5fgUWXblwWBShAgWsRkE6Pwd07kJoYAz/HWaqC1OXOYaPhuawIR/h4uGBb3yacOX3qWnaf76GAyQkwIDe5JrHsDZIca3UbtXwRYkK80ZQfom6fjoaLwuW2USqxrC4NR6bWD1npKdi+fYeabtqyW5l7TwEKGFNAqqqsXbsWcZoIFCf6qwoqMg7mcuew0fDc9uoYLM8MQoifF+rraiGzNvNBgdEmwIB8tLWYGW+vVFORC0VJyUIkaQKxMM5dDd4cDReEq21jfXYAksO9kJiYhP7+7ZDJjfigAAUoYGgB6fRYvWYNEuNikBLqiu6FYaM2EL/0vLuzJhbpoQ5I0oajpmbFVSc+MrQ710eBqwkwIL+aEF83mICM/N+wYQOsreYiO8LBLC4Sl14wWvID8dbrr2FZVZX64mEwWK6IAhSgAKBqjcvgx+ysDMye8gH6l2vN7jwb4joLfj7ekHkgOPsxD/vRJMCAfDS1lplva0tLK5zsF6iJdraZ4YVCJi+qzfRFsLcTioqKzLw1uXsUoICpCUgJWa02BjGBzugoClazYl7aaWAOv68vj0BOtAecnJyxZctWU2sCbg8FhhVgQD4sDV8wlICUqtq8cSNKctOg8ZqHvkrNqKimcr0XL8nRPNySjLxIJ2TEhaGrs0NNeGQoZ66HAhSwXIFDBw+isa4WcaGeWJLsqYJxU5jH4XrPo1d7//H2VHQUhSDYdR4qy4uxY0e/5TY693xUCTAgH1XNZX4bK7nUZ06fRnZGGjI13tiwOEJNRnG1k+5ofn1rlQZlyX4ID/ZH/7atKtfR/FqWe0QBCpiKwIXz51UHQICXK1ZkBWLXylizS1W59JogdcpXFYcgPtQTSxeXQe4MyBglPihgygIMyE25dSxg22QQ5+ruboT6eyEnwlnNxCYzX156cjW332WG0dosfzjMn4kV1cuwf/9+C2hp7iIFKGAsgZ07dmBhYR4c503DuvIINbOwuZ1XL90fmQtC7kZGec1HQkwUent7VVBuLH+ulwLXIsCA/FqU+B69CWzZsgWhIcFIj3RHe2GQWQfil14wNi+NQlaEE7ThgWhuatKbLxdMAQpQYHF5OWLDfFES44I9tfEWcZ49syod1eneSIrwQkpyMg4fYilE/iWYtgADctNuH7PeujNnzqCxvg4fTx6P6gxf7G9MtIgLhQTmR1qSsa48HJ72s5CXk4WTJ0/ylqpZH+3cOQoYXuDixYs4duwYNJFhiPK2xo6aGJzoSLWI86zcaR2ojUWB1hUOttbYtHEje8kNfwhyjdchwID8OrD4Vt0KbNq0Gfk5mXCZPw3ryyNh7qkql/aQn+vOxKHmZET7WCMxJhKrVnXh3LlzugXm0ihAAYsWOHr0KOrq6hEZ5IM8jTPMcRDnpefVr/8u15S6bH94OlqhorwMu3bttujjgTtv2gIMyE27fcx66xaWlEAT5KFOmPsaLKd3fOiiIbnkUg0gPcoLMVot5OLJBwUoQAFdCWzduhWeHp4oiPNGz+JIi+gZHzq/Dv2UWTyXpPgg2M8TDQ0NuqLlciigcwEG5Don5QKvJnDx4qc4evQYYqI1CPOYj0PNSWY/yGjo4nDpT+m9kYFHhVo3ODvYQfLppRoAHxSgAAVGKiApga0tLZg2eQJWZvrjeHuKRQbkJzrS0LtUA2fr6SgqyMcJpgeO9NDi5/UkwIBcT7Bc7PACki/d0bkKkaEBSA62t8iLxKWBeWWqD9wcbFBTU4N9rLgy/IHDVyhAgWsW6N++HQtLimAzeypWlYRa9HlW7sAGOM1BSmIcejZsZKnZaz6K+EZDCjAgN6Q216UEpMxfRmYWEsO9UZXqbdEXCgnMO4tCEB/kiJSkBGzYuJFHCQUoQIERCzQ3tyAxJgoJgbbordRY9HlW7kQWaJyQpAlC+eIKnD17dsS+XAAFdC3AgFzXolzeVQW2b98OZ2dXZGs80FMeYdEXCgnI+5drsTjJC+7ODmhobLyqH99AAQpQ4GoCxcUlCPBwVGN09tYnWPR59oTM3lkYhPgQV0RFaVRVq6v58XUKGFqAAbmhxS18fTJb2vr16/HBBx9iYZybyh+/NH3DEn8/2pqCzuIQTJs4DmVl5ZDZS/mgAAUocCMCX3zxBT799FPExcXByWqqmpXzZEeaRQfkZ7oysK8hAfEBC2Bna49Dhw6xzOyNHFz8jF4FGJDrlZcL/7qA1MStr6/HlEkTUJPhCzlRWmIQfuk+y6xyfVXRmPfxBOTm5OAgLxZfP2z4fwpQ4BoFLly4gD179kATFQk/x1k43p5qUSVlLz23Dv1+bnWmKhyQHeEEuwU22LhpI06fOXONonwbBQwjwIDcMM5cy78F+vu3o6y0GP7O89Bl4QONhi4W8lNmz4v0nIec9CSsX9/DXnL+xVCAAjckcOr0abS2tSM5JgxZEY4405Vu8Z0eQ+fa5ek+CPN1Rk1NNfbt23dDvvwQBfQlwIBcX7Jc7mUFVnV1ITMlHnkaF2ypitbbhUKmTT7YlIDNFWFYXRyAjnxf9W/twkBsXx6FY63JX02SIe891JSILUsj1Hvb83zQke+jfu+tCMOhpgScXqXfW74Hm5KwKN4N2YmRqF5ezSoAlz16+CQFKHA1gSNHjqCoqBg58UFYmekLuQM3FJDq86dMOrS1MhJdRf6Qc2jPomDsq4/7at1bKyPQmuuN1pz//ifn5w1lwZBcb31uY/fCUGRHeyErI02Vmb2aJV+ngCEFGJAbUpvrQm1tLaKCfVGsdcW2ZfoLyA80xKMmxRkz3vu/+Nvjv8LDv7hH/Xvpr48i0OZ9rC72x4l/1+U90BiP+nR32E1+DX9//Fd48P678fDPf4xn/vQwZo19AbWprv9xYdHHBUNqsS9N9kBCuDcK8vJw4fx5Hi0UoAAFrltAqljJRGOpEZ5ozPE3WEAu51OX6W/iiUcfwC9+8kOMefkJlEbbfBVgO059HT+5+078+K7v/de/X//iHox99UlsXarfQf5rF4UhW+OG8OAArF279rpt+QEK6FOAAbk+dbns/xKoXLoUgV5OWJLsiZ0rYr86WesyyJUJdwrDrDD+jb/hARVc34PfPPAT/PoX9+K+H30fTzz6C9hMeAV9S77s/W7K8sAH/3gKv3vofvzmwXvx2jO/x4tP/RaPP/IzPPSzH2P860+jPMZWL9s6tN9HWpJRl+WH2CBXpCQn4TwD56PAlwAAIABJREFU8v86dvgEBShwdYHBwUEE+vsjLdwNnUXBX90JHDrX6OPnwEotlsbZ46Wnfovbb7kZ37npW/i/TzyCvJC5Kn/9ZEcqpo15Dt/65v/B7bfejD/99hd4+a+PfvVvzEt/hvPHb2BXtf46aWS/Ny2JRFGsO7zcnNDZ0XF1TL6DAgYUYEBuQGyuClhUWgovp/mqFNdgfbzOg1y5PXu8LRkes97BYw/dh5/e8wOMffUp2E76J+aNexkP//we3H7Ld/DbX/4EtWmu2LQ4BBl+M3Dn7d/FXXfcileefgwp3h8j2mUC3nvlL/jOt7+FH955GwKs31dpKzI4SB8XtGNtKVhVHAKtvwOiNVGcsZN/LBSgwA0JDOzeDVdnZ2REuKBncYTeB3Se6kxDc5anupv4+CM/xx23f/c/AnJJCZS7kJPe+ju++51v46Gf/QjSW57iM/2rf9mBs1GZ4IDDzYl6Ob8OnbOHSszaW89DS3PzDfnyQxTQlwADcn3JcrmXFSjIz4ezzUwVfEre9NCJUlc/pSdmx/IoeM8dg7ee/xNmj31B5Y6fXpWOvXWxmPneC/j5vT9UgXpO0GwsT3JEoPX76kLx+G9+jkCbsWoQlAyESvKahrvuvA3f/N//A7vJ/8Sh5gS99TZJWbLNS6Og8V2AwMBAnDt37rJ+fJICFKDAlQR27tyJ+VZWyIpwRv/yaL0H5Psb4pDoNRXfv/27qkPjz7/9xX8E5Kc6UrGzWoNxr/0VP7jjVnX3cWWqy1fnWTnXnpV/3frPdd9TF4/qDF/Mnj4FdXV1V2LkaxQwuAADcoOTW/YKMzIysWD2ZHXrUHqFdRWIDy1nqId8XWkQGjM9sKrAV/XOHG1JggzofOeFP+Oeu76HRx64V+WYbyoPQVbATNU7/vOf3IWZ7z8PGcgpA0FdZ7yFW2++SeU9Bi/4QK895PKFYffKOER6zYe7uwdnkrPsPxPuPQVuWEAmXps6dRpyIpywrz4e57r1c1dv6JxbFG6FCW/+Db+474fwmTcGk99+5j8C8uPtKdi0OBTvv/IXla4iAfuEN/6mzrUSpMvdy4LQedi9Qqv3wfMyVqchJwATxo3F8urqGzbmBymgDwEG5PpQ5TKHFcjOzoLz/GkYqI1TdWGHTur6/FmT4oJY98lwn/k2/vr7X+Kp3/8Scz58ERKMSwWV5mxPvP/qX/DoL+/D0394CB6z34X9lNfwj7//Dj+5+w6VQ14Ra6fzLw+X7rN8kZAJghICbOHt5cUe8mGPIL5AAQpcSUAC8hkzpqM03h0SDF96ntHl7zKIc/uyKMwf/wqee+IRTHr7GTWIU9JRLs0hP9qajO4if7z74p9x07e/qTo45FwrnSLSOfLgfXfj/VefRLrfDHUXU8YA6XI7L12W3InsXhiGaZPGoaam5kqMfI0CBhdgQG5wcsteYUlxIYLc5+NIq/4uFJeegOX3D//5FG65+SZ8+1vfVBVUbCa8irZcbxxrS1a3cwdrY7Ek1h6vPft7lV9+803fVheUu+64DU8+9iAWaqwxsEKrt4vE0PbKhSgv2h3hocH4hCkrlv2Hwr2nwA0K7N61C452NqjJDNBr7/juGq3q2X7m8YdVGopUo+oq9IPz9Df/IyA/0pKEtlwvNSZHcsjlXPyXRx/ES089iicfewB33PZdfO/Wm1WFKwncJSd96Jyo659yt6CvSgs7qxlobKi/QWF+jAL6EWBArh9XLnUYgczMTNjPnaIqrOjzxHvpidxn7hg8+6dfqyor3//eLZCBR07T3sC2qkhVq3xFiovqDf/lT38EuZ0qveNzP3wJz//lN2pA5z/+9hhyg+eoHn19DeqUHvLDzUmI9bOBhwdTVoY5fPg0BShwFQHpIZ82bRqKY1zVXbdLz4W6+l3O3ZIS+OrTj+GFJ38D91nvYH99vJr34esBuYzr6a+KhIzZ8Z33L4Tbj0NVoqMa27MixVlVtbr7+7erzhKpjrWrRn+VVqTOeWdxCCZ9NBbVTFm5ypHElw0twIDc0OIWvr6srCzYzpmKDYsj9Hax+PpFpy7dDak+0yF54FKWS2re/u2Pv8JCjQ0kGA+zHwe5IPzx1z+D9J63ZHuqCizus97GA/fdjXvvvkNVBZAAXl8TBJ3qTMfOFTGI8poPT09PpqxY+N8Jd58CNyogAfnHH89QOeSDdXF66SXfvDgUGucJ+NEPvqfKG0pVK5n3IT90Lj56/Wl1N1LOp56z30F7njf218ehb0k41hQHqFRB6TWX87RUVZFz7kM//RHuuesOaF0nqXzzr5/DdfV/KSRQn+2PSeM/RHU1U1Zu9Bjj5/QjwIBcP65c6jAChQWFcF0wGx1FwTjQqPsSV9LTLLNw7liuUb010jMjqSlyQpeLgATlf3nsARWAu814W/1/6jvP4qZvfRNvP/+4qps7dPIv0y5QuZG33fIdfPDPp9TkQcf1MBBV1neiIxUbKyIQ7WuL4OBgBuTDHD98mgIUuLLArl27YGNto6qsbF2mnyorUqJwyjvP4Nvf/F/86Te/UJP6THnnWYz9x5P4/cM/xf/+n/9PBdgyn4P0ikuuufR8y899dXGQXnM578lge68576rPyIRB4Q7j1AyfQ+dgXf+UsUvL0n0wd+Y01NczZeXKRxJfNbQAA3JDi1v4+srKyuDjsgArM/0gJah0fcKVHhfp4Z79wYt47s+/xuR3nlW3RmU9EpCH2n6IJ3/3oEpFcZjyGvyt3sOUt59RAfnrz/4BWYGzvtqmhZHWahDord+9SeWhN2bob5CUVJzpKAyCNsAJMTFa1iG38L8T7j4FblRgYGAA7m5uSI9wxfrycL2UPVwUvQAf/ONJfOub/4ubb/qWygG/8/Zb1E+Zu+F//ucbqlysTAIk43CyAmapNMGp7z6HWLfJqpKVjJk52JiAj8c8pyZsk1k8M/1nYvuyyK/Owbq+Psjs0GWJXnC0s0Zra8uNEvNzFNCLAANyvbByocMJVFVVIdjHFYuTPLCzJkbnJ17pwZbqKTIJhdxO/dm9d2HuuJcQ7TIRkU7jv6yc8qM7cf+Pf4BYt0koDrdSPTQy0Ojhn/9YXRykoooM5JRbqXKR+N5t31WVBGRmz9N6GnAkM3WuzPRBbIg70tLSOFPncAcQn6cABa4osHfvXgQHBSE1wl19yddHfe9N5aEo1dioO4wyaZr885//vkrtkxk6Ze4GSfcb9/rTiHGbhOVJTqrU4S/vvxsyCFRSWeI9p8B//nsqVVCqrUiFK+n0OKLHyYE2VkSiIMYdPl5uWLVq1RUd+SIFDC3AgNzQ4ha+voaGBmjDg1CkdcW2ZbqvXDKUsjKUmiK9Ng/ef7e6JSoT/9z9g9tVb4yUNJTccqmPWxI5H3959AE1WdDvHrofE9/8u7oFKz3pklv+5O9+iXiPKV9VZdF1r40sT+rjLkn2QFKUP4qLi3HhwgULP1K4+xSgwI0IHDhwAAkJiUiL8kFDtj/knKiPc9bXlyk93jLO5nKDOiWFUAbSS6fHHbfdrM7Hcn595IGfqE4P+V1elwmEvr5cXf5/zaIwZEe7QxMZjvXr198ILz9DAb0JMCDXGy0XfDmB1avXIicjBbnR7qr8lC5PtkPLkgtD75IwVdf2lb89pgJyqa7yg+/dgt88+BPMev8FSC/4gcYEyLTOkttYGGqF8W/8TQ34vOvOW1XgLnVy33r+ceQGz8WWpfqdgloGG5XGeyAnRYuVtXW4ePHi5fj4HAUoQIErChw9egylpeXITQzHikzjB+RSmUpm4uzM91U96k88+gDuvftONWun3MH85zO/h9Z1oqrEou/KW10Lw5Ad44u83Bxs29Z/RUe+SAFDCzAgN7S4ha9v167dWLK4DG52s9FeFKK33hAZyClB9LIkR1UrN8N/pspPLI6Yj5Zsr3/PCpeu1i+lsKQHpz7dHTLrnExQIbmM8rtUDuhfFvXVwNChoF/XP2WWzgDnOcjOSMHmzb347LPPLPxI4e5TgAI3InDmzBl0d69BgjYcycH2BpuATQJvGafTnueDNN8ZqtNDKqsMnSslX3x9aRDKtLbICZqjzrF5IXOxLMkJG8tD1EBP6UwZer8+fi5J8Ya/pxMa6utx8OChG+HlZyigNwEG5Hqj5YIvJ3Dy5Ek0Nzdj0sQJarS7vntE9HFS1/UyT69Kx6YlGsyZNh75+fmQHq4vvvjicnx8jgIUoMAVBeTumqStRGs08HaYCRmfYqi0FV2fG3W1PAn0ZZbOjHBH2NkuwJYtW3D27LkrOvJFChhagAG5ocW5PmzatAkffviRmrhCH6UPdXUSN9RyDrcko60wGNMmfYSKiiU8QihAAQqMWEDyyB3nTUP/ci2Ot39ZZtBQ5zRTW8+ZrnRIycNY/wWwd3DEsWPHRuzLBVBA1wIMyHUtyuVdVWDnzp3w9vZFRpQHuheG6vUWpaldGC63PX2VGpTEe8DXyx0tLa1X9eMbKEABClxNoKy8HCG+bqhK9VLB6OXOPZbynHwhaczxR0KoB+LjE3Dq1Kmr8fF1ChhcgAG5wcm5woMHD6KwsAjx4T4oT/Sw+IC8tSAIGn8HZGemo7e3jwcIBShAgRELdHR2Ii0xFlHe87FxSZRFn2elilVGqAOStKFYvryaE6+N+OjiAvQhwIBcH6pc5hUFTp8+jXXr1iMyLAjxAbYqv1EGBFlKb82l+yk1giuSveHiYIPGxkYcOnT4inZ8kQIUoMC1COweGMDi8jJYzZisBtDre8Dkpec1U/pd9ntPXQJ8HGYjLSUJW7ZuZRWrazmA+B6DCzAgNzg5VygVRKQSQIxWiyDXedjXkABLHNwpwbjk0OdqXODoYA9J5WG5Q/59UIACuhA4f/48Ojs7MGnCeCxL91WDO00pUDbUtki6yoaKSDhYTUdJcZHqHeegeV0cYVyGrgUYkOtalMu7ZoElS5YiJtwfZQkeGKiNt7ge8hMdaViZ6Y8UjR/S09Nx/Pjxa7bjGylAAQpcTWDHjh0IDQ1DVrQ3OvVYZtZQwfWNrGfzUg0KYjyhCQ9GW1v71cj4OgWMJsCA3Gj0XPG2/u1YWFQIh7nT0L0wzGD1cm/kpK7rz8io/731CYjwskZKQix6NmyE9GjxQQEKUEBXAsdPnEBH5ypEhfgjK9xJlf6TO3O6Pp+Z6vLkzmt1hh/cHa1RvXw59u7dpytaLocCOhdgQK5zUi7wWgUkPaOtrRVTJk3E0lRvDNZZTi/5waZErCoJgZvdHBQWFqhgnLdRr/XI4fsoQIFrEfj888/xySefQButQZinNbZUaiymBKLkjm+v1iJH4wJ7O1v09/fj008/vRY2vocCRhFgQG4Udq50SEDyppOTk5EY5om67ACL6blZVx6BuAB7pCTEoKure4iDPylAAQroXGDFypVIiglHWog9dq6ItYjzrEy4tijBA4mR/igqKlYTrukclgukgA4FGJDrEJOLun4BqQe7adNmRIWHIEfjgcMtKTjTZd63VI+2paAmMxCuDgtUZZXDh49cPxw/QQEKUOAaBQYH96JicRlcbeeiuzQSJ9rTzDooP9WZjsH6BET7OajKKtt37GRK4DUeK3yb8QQYkBvPnmsG1BTxchuxqKAAWbFB6FoYjqNt5j2rnNQELk0JUreR9+wZUAY8GChAAQroS0BSV3rWr0doUACqMkPQX23eveR7GxLQlBeERE0gamqqIfvPBwVMXYABuam3kAVsn+ROD+zejbKSAlUrdn15BE6Y4VTPMsBof2MikoLskZqgwZYtWzhBhQUc39xFCpiCwIkTJ7Bu7RpEBHqhKMYVh5uT1BwQpjog80a360hrMhpyA+FmOxu1Nctw4MB+U+DnNlDgqgIMyK9KxDcYSmDNmrUIDQ5EtsYda8vDze6W6o6aGORrnKAND8Cy5csNxcr1UIACFFACMinb9BkzMXPiGCxN8cSh5mSzO8825QUgNdITkZEa7Nq1iy1PgVEjwIB81DSV+W+oVF0ZGBjAnHlWSA6yw8nONJzrNo8ZPGWA0cpMP7z48qtoaGzkBEDmfzhzDylgUgKSGrhv3z68+uqrePjhX2PSR+9j05IosxmzI+UcZW4Hb/sZ8PULUNVlmKpiUocgN+YqAgzIrwLElw0nIKkrMoNnzYqVSNCEINHfBgebksyiB2dxkic0QR4oWViKwcFB5o0b7rDimihAAQD19fUYM2YMkpKSsKisDHk52YjwsUdTXqBZnGP7KjUIcJyB1MQYdHR0qrxxlpLloT+aBBiQj6bWsoBtlclx2tvbEREWAuuZE1ES64pty7Sj9oJxoCkJNRk+WDD9Qzja26mJKaQuMB8UoAAFDCWwevVqFYjb2tpiw4YNOHbsGLb09SEnMw0FCYFoyQ+EjHG50bxtY3+upzwCiQHWeOMfLyEpMQF9fX2GouV6KKAzAQbkOqPkgkYqILdUDx8+jPz8fAQG+MHZYQGsZ3+MskQv7GtIUDN5ymQPxj75X8v6pXTjweYktBWGwMFqBsa8/SZsbRdA6q6fPXt2pFT8PAUoQIGrCkgHh6SphIeHQ6PRqN+HZgSW8+3B/XuRl5WGIFcr9C7V4EhryqgZ6DmUojJQG4/0cGd8PHkC3n7rTQQGBqKurk596ZA0SD4oMFoEGJCPlpaygO3cu3cvqqqqYG1tjfT0NPT3b0NDfR2C/bzUrchdK2LV1M/XEhAb8z0SjMsXiLQQW9hbz0HlkgqsWd2N3NxcPPbYY+rWsQU0J3eRAhQwssD69esxceJExMfHQ3rJJUAdSuOQn/L/vt5eFORmY/a0CahI8sCh5tGRJni0NQVdJSGwmfERYqMj0NrcjK1btiAsLAw2NjaIjo7G7t27jdwCXD0Frl2AAfm1W/GdehQ4cuQIKisr4eTkhPT0dHVbdajHvLa2DsnxWsT526IlP0gFu8YMuK+07sPNyZCyjZnhjkiKDlG5mnv27FHlDaXMoZ+fHzw9PVFWVqZHTS6aAhSwdIHOzk4ViMs5taGhAcePH78siVRe6e3tRU5OLhIjfFES64bty2Nw3ERLz0qHx+6VcajO8EV8sAtSU5JUzrjsn3zJkJTHlJQU+Pj4QKvVoqWl5asvIZcF4JMUMBEBBuQm0hCWuhkyCl5uocotxpCQENWzIWkdlz6kF6enpwdOTs7I1HijuSAUW5dp1YBPmZHtSgGyIV4705UOmX1zR00sOkvCsTDRD15uzqipqcGFCxf+62JgZ2en7gKsWbMGcjHkgwIUoICuBOScIz3DEoy6uLioYFxSAa/0kPPwuXPnkJeXj2BvF/z/7L0FeFzXuTV87/3+r3BLt73l9pbTpg00pfSmGCg3SZ04YIqZmS1mHEkzI42kGY1wxMzMzGZLZpZtGWN2qN/6n7XTcWVXVmxrRp5zZp/n0TOjMwf2Xpve/cJ6q5ODsLVYC7qDUDCne8hEzKVjveNSd6JQxgyUR6IhNQSxGk/hinPq1DDee++9W6rHNSQlJQXLli1DcHCwsA6cOXNGzMe3XCj/kQg4EAJSIHegxnDGojDAkVSHc+fOhbu7u/D7o2Z85GE1rVIDUpSfiyAfN7ivXoD6FD8cb4x54AsFTbxbCjSI8FoBH7d1iDfF4NChg4J2y2oeHlkfBlTRhPzoo4+iv79/5E/yu0RAIiARGBcCtMj5+PgIX+qSkhIRs3I39H+cq8hytX3rFmg1QfDauBLxoeuxu1znENrygzVRKIx1h8uqhQgN8EZDXQ0uXbr0L8I4weMacvnyZdBKsGHDBjzxxBPIzs4WDFfjAlfeLBGwIwJSILcjuPLRYyPABWBwcBB+fn4wm81i8hz7DuDI4cPCrzw1JRFRIZ6IC9mAUrO30E6Tg3YsDYstfyOv+OlWExpTA5Ec7oII33VIjItGVWUFBgcHhDA+Vl1oIo6OjgZZD6T7ylhIyd8kAhKBu0WA8wpjVegWV1xcDArnoykFxnoeM3pu3boFxUUFMEdHQOu7FmlaV3TnhuJcu3lCteUXOuOxq0yHHIM7YgLXIybCH1mZ6ejs6MCpkyfHqoaoN5UfdGGJiYmBm5ub+Ozo6BBW2TFvlj9KBB4AAlIgfwCgy1dCTJZbt24VZkVqxu+Fpoqaj8Hdu2GxpCI8NBiRIV4oifdDe2YItpdocbDG8A93FtsJ6BTAyUBA38WBMj26cjSoTvZHXIQPwkICEBVlQFd3t2CJudv25cJH9xVPT0+0tLRI9pW7BU5eJxGQCNyCADXCDIrPzc0V2nEK5QcOHLjlmnv958SJk6irb0BEeDjCgnxhifRBgyUQfflh2F0RieON77uz0KfbFsoOMmjRLeVUs0lQ3W4tjkBzWhByYn2hCfBCRJgG+QUFOHToMG7ceOueqkPBXKfTwcPDQwR7trW1gS4s8pAIOBICUiB3pNZwkrJQY0Ofvzlz5uDVV1+9rwQOfAbNsEeOHkVRcTFWLF8haK9cVs6HRbMePTkhNg3+PNtuxs5SreBF99+4BAvnzMT0adMRn5CInbsG7qsObG7WgTRdjz32GA4ePOgkPUBWUyIgEbAlAoxFIV0sXVVIcUgB9F4146OVh8+48dZb6O3tg1arw6w3ZmDp/JkI91yOCrMXDtRE4c2ueJsI5FR6HGuIQVNqAEyBa7Bq0RzMmTkDrq5uaGhsxpkzZ0Wd7rdenGtrampEnNKkSZNQVVU1WpXlOYnAA0NACuQPDHrnfDEn0127duGNN95ARETEXbmpjIUUA5HIs7t923bU1tYgM82CGF0oAj3WwmfDImg8lqEg1kNM8m0ZgejP12CwTIfDdQYMt5iERuZqbxLIjsLFYG+lHlsLw9CZFYzmtABUJvog2n81/Dctge+m5YjU+MOSFI/yslL09PTi8JEjwldxrDJ+0G9kX0lOThaYlJaWftDl8neJgERAInATAWrGq6urhfaXDFX79+8XdIY3LxjnFwqyF958UzyXriJFhQVIiotBRJAnPNctQqDLEsSHrkO9xR8t6QHozgnB9uJw7KuKxFBjLEhPSO03g0NJB0tf8F2lWkFZ2JoeiAaLPzL0LghxWwavdYsQ6rsJcdFa5GZnoamxEbsGBnDm7FmbBGSePn1auLDQRXLNmjWCieXQoUPSOjnOPiJvtw0CUiC3DY7yKXeBAIXx3t5ekaBi4cKFoC+fLQ9qhQYGB1FbV48Ui0WYKDWhwUgwhMISHYgErSeStR5I1bsjM9INOVFuqEz0Q11KoNB8Z0W6IU3vjhStOxK1HkiO8kNKTCi0YSHQRkQgzmxGWXkFtmzdilPDwzbRQFnrPzQ0hI0bNwpaRGpuyCwjD4mAREAicCcEOJ+SLraurk7MG4xJsXeQOBlcjh07LmgGCwqLYIiORnh4GKK0IUgzaZCk90GS1gMWnTvS9W7IinJDodETjWnBKIv3QXaUGzIi3ZCqcxdzcYLWC5aYIBj1IQjThEIfGYnMrCw0t7Ri/4EDdmGhohKHsUtMlMQYHoPBIFwGqdiRh0TgQSIgBfIHib4TvZsuKufPnxc84y+88ALoP23vgxkxDx0+jIamJqSmpQuNvI+3N9atXYuFCxZi6rTpWLhgPpYtXYwpU6dh7tx5WLVyFTzc3QUFI91RyisqMTAweEcOX1vXgf70f/nLX3DkyBEZeGRrcOXzJAIqQYDCODftVGqQLnbBggUPzOWNvthUUhQUFcNoNAkXPFcXVyxfvhyzZ8/BjBkzsGrFMsydw+9vYMniJdi4YYMI5qdQnJWVg/aOThw/PjShiggr3e7TTz8t1iUmpSPLzO0UiirpMrIaCkBACuQKaCSlF5GLBwXM6dOni8manOK3Uxvao47v/f3vgu2E5lZqtEmvSH7aA/v3iyDSgYEB8cnsbvxOhoL9+/aBJkzy+FJjcu7ceVy9em1CyksM+G6LxYLnnntO+DvaAxf5TImAREDZCFBwpKsbrWqMQWFQPDW/D+LgxuDylSvCrYTuM5zrGQ+zb98+MadSG71/396b31luBpxyLiYLDN1ILl68JBQQXCsm6hCuOBcugOQCzOpJznZubmR2z4lqAfme2xGQAvntiMj/bYoAJ9ju7m6xaJB2imwi8hgbAS5WZF4hHSR5hOUhEZAISASsCFCzS9cUMoZQgGxoaLD+JD/vEwGuUQkJCYIuksI51ylueii0y0MiMFEISIF8opB2wvfQ9EctCDU4f/3rX8V3J4ThvqvMhBbz5s0T2i8uDvKQCEgEJALUMBuNRjzzzDPjDoqXaP4TAWrr8/PzMWXKFJGkjvFOMrvnP/GR3+yPgBTI7Y+xU76BmnH6jE+bNk0kZKBgzoAgedw9AqdOnUJiYqKgRGxvb7/7G+WVEgGJgCoR4LzK3AWkjKVbCONk5GEbBOh6w2zQdGEJDAwEY53oPjhePnfblE4+xRkQkAK5M7TyBNeRiwa1C/RvDA4Olm4q48CfvqFhYWFiU1NYWDiOJ8lbJQISASUjYLU2kmucCYDkYXsEuHZxk0MXFrLWEGtaI+jCIpmvbI+3fOKtCEiB/FY85H/jRIATGnnGGT1PDQMDOOUxPgRoWaBWjC4sXCiYBEQeEgGJgPMgQHcKCuF0/WNciXRhs3/bnz17VgjljH2ir35XV5dwYZF+5fbH3lnfIAVyZ215O9Sbwjj9xmfOnAnyjNP8NxFsKnaoikM9krhSCGew0aOPPort27c7VPlkYSQCEgH7IsCxz2RqTU1NQijknCAP+yJAwZvMNcTcy8sLzz77LIqKigRzl33fLJ/urAhIgdxZW97G9eYCQd+7uXPnitTNtk76Y+PiKvJxpGWMi4vDsmXLxMKgyErIQksEJAJ3jQC1tCaTSbj+0Z+ZFIEyFueu4bPJhQzspGWScy+tlCQp2Llz57gzNNukcPIhqkJACuSqas4HUxkK45s3b0ZUVBRee+01MXk9mJKo/61coNevXy98G0l39qC4h9WPtKyhRODBIkBO7+rqapHincI4cxTIpDUPpk1INckLCm7fAAAgAElEQVQ8FhEREVixYoVwZaFfuczu+WDaQ61vlQK5Wlt2gupFsx4nq8WLF2PSpEnSRWWCcPf19cWTTz4pknBIn8YJAl2+RiIwQQhwTNM9gq5/SUlJIgnQBL1avuYDEKD1l/FRFMzZRtwkSReiDwBN/nxXCEiB/K5gkheNhgAnIbKAMAMnmUCYrEJOTKMhZftzzIKXkpKCV155BeXl5bZ/gXyiREAi8EAQoNWLgh61sfQd5xwrgzgfSFOM+tILFy4I/neyrzCBW0BAgMg4OurF8qRE4B4QkAL5PYAlL/0nAhS8e3p6xKKxatUqtLW1/fNH+W1CEGCKZxcXF7EgUCiXmvIJgV2+RCJgNwTokkYNbEhICGJjY8UcK93S7Ab3fT+Y619fXx/i4+PFHExWMQZ/njt3TroV3Teq8kYpkMs+cM8IkDlleHhYaAdIw8VAI3k8OAQolE+ePFm4r9y4cePBFUS+WSIgEbhvBOj6x+BBuqMxf0Nzc/N9P0veODEIcB2sqKjAb3/7WyxZskQopiiUS87yicFfbW+RArnaWtTO9aFmYGhoCFOnToWfnx8GBwfl5GNnzD/o8UeOHBEZ5X7+85+jvr7+gy6Xv0sEJAIOiAB5rmNiYgSTB62Ply5dcsBSyiKNRICCN11YmG+DWvL58+cLNha6GclDInCvCEiB/F4Rc+LrKYxbNTje3t4yA6cD9YX9+/cLzRozyxUXFztQyWRRJAISgbEQYI6BvXv3wmAwCMrYqqoqnD9/fqxb5G8OhgDXRsZQcUPl7+8vsnvSwiFZcRysoRy8OFIgd/AGcpTi0T+ZgYQM3nz++efFd0cpmyzHPxEgJeLSpUuFxkZm9PwnLvKbRMARESCnOIVx+iJ7eHggKyvLEYspy3SXCJCzPCEh4SY1LXNzMC5AurDcJYBOfpkUyJ28A9xN9bn7Z5Q/2VSYwp38uHKCuRvkJv4aTv5MYMGMnrRmyEMiIBFwXAQYmJ2RkYE//vGPgnP88uXLjltYWbIPRIAacboatbe3IzAwED/96U+Rmpoq46w+EDl5ARGQArnsB2MiQGGc0eQrV66ERqNBa2vrmNfLHx88AszoSbo0ZpUrLCx88AWSJZAISARuQYCB8XRLoTaVmvG8vDyh6LjlIvmPYhFgYCfjAOiGxPbV6XRCQXLx4kXF1kkW3P4ISIHc/hgr9g0Uxrdv3y4ycL744ovYsmWLYuvibAWnuwqtGW5ubkJbI3mMna0HyPo6KgJ0/yMzVX5+vhifWq1W5m9w1MYaR7m46aK2nBmsV69eLYI+qdA6derUOJ4qb1UzAlIgV3PrjqNuFMZpfps1axZmzJghUrRLnutxADrBt7L9SKMWHh6Oxx57TCQXmeAiyNdJBCQCoyBAv3Hmbfjud7+LxMRE6f43CkZqOcV5mO6ddGFZsGCB+MvJyVFL9WQ9bIyAFMhtDKgaHsdJhDROFMaZLY50XPJQJgKk3+KiTzqukpISZVZClloioCIEsrOzReB1cnIyDhw4oKKayarcCQG6sHAdNZvN8PLyAtmwSJJApYk8JAJWBKRAbkVCfgoEKIzTZ5w+yLNnz5bCuAr6BU2k9Ccnb3xNTY1cBFTQprIKykOAbmMNDQ2CntTV1VWwb0haPOW14/2WmG1NF1AG3a9YsQLR0dGCOpjJhWQ/uF9U1XWfFMjV1Z7jqg0nBfq8rVmzBvQZv3bt2rieJ292LAQ8PT3x7LPPioyekiXHsdpGlkbdCNCfmBpRUsaGhoYKP2IphKm7ze9UOwZ20oXlueeew+LFi4WShOuu7A93Qsx5zkuB3HnaesyaUjNO8+m0adPEgrFt2zY5QYyJmPJ+ZPtaLBb89a9/RWVlpfIqIEssEVAoAtSMM7CPiWM2b94M+pFzzpWH8yHAzdmbb74p+gH7A4PvaZEeGBhwPjBkjW9BQArkt8DhnP9wYSBnNWkN6dogqQ3V2w8OHToEd3d3kU2utLRUvRWVNZMIOAACFL46Ojpu0t9RGKc2VB4SASLA/mA0GoUbU2xsLKzZPeVmzTn7hxTInbPdb9aaC8axY8eEgEbN6fHjx2/+Jr+oF4FNmzYJ9pyDBw9K1yT1NrOs2QNEgAF7nE/pKhYQECAEc0k/+gAbxEFfzeyemZmZItCXmZYZiE+OeulW6KANZsdiSYHcjuA6+qO5Cycf7tSpU0Xk9/79+4Up1dHLLcs3fgSGhoZAlgdSIlIrIw+JgETAtggwgM/b21tYHmtra0W2Y0kda1uM1fA0KsUogFut1E888YQI/KSyRB7OhYAUyJ2rvW/WlsI4M4nRfYHam5aWlpu/yS/OgcDevXtFemdq8IqKipyj0rKWEoEJQIDCOOM1mJiLzEbcAMtDIjAWAgz27O3tFTFcpEWkfzndR2V2z7FQU9dvUiBXV3veVW0ojA8ODoIZ4l544QUZTHJXqKnzImrsGFREZp3+/n4ww6c8JAISgftDgG4qpLEj939QUBAyMjJkZsb7g9Kp7yI1Iufl4OBgkUSKlmx5qB8BKZCrv41vqSGFcfqmMfvm8uXLBReu9FW7BSKn+4caGGpjHnnkERFk5HQAyApLBGyEADXhFMaZ/IUuYaSOlXR2NgLXiR7DWANSI9KCPXPmTLGxc6LqO21VpUDuRE1PYZxR3QsXLkRYWJjYeTtR9WVVx0Bg9+7dYJQ/qdmk+8oYQMmfJAJ3QODIkSMiG+7atWvBbJzkHZeHROB+ERiZ3dPDw0Ns8khHfPny5ft9pLzPwRGQArmDN5CtikdhfMuWLYiKisKkSZNENk5bPVs+Rx0IkBuXZlJq9xjoKRNDqaNdZS3si4A1KI80okz6Q2UHmTLkIREYLwLsW9zYMavnG2+8Iegz6Vd+8uRJyADh8aLrePdLgdzx2sTmJaIwTrPp3LlzMXnyZJmQwuYIq+eB7CsM8n388cdBznJ5SAQkAmMjQI0l3Qs2btwo/uhHLg+JgC0RoFvprl27RAbtRYsWoaCgQDKi2RJgB3mWFMgdpCHsVQwKWMwAxt11eHi4iOK217vkc9WBANlX6P86ffp0lJWVqaNSshYSATsgwPiLrq4ukQKdCV4410rNpR2AdvJHch3nxo/UiCaTSXDb0xojs3uqq2NIgVxd7XlLbTiISW2o0+mwZMkSocW55QL5j0TgDggwOI3Jg/z9/VFZWSmTVNwBJ3naORHg3EpNOOliQ0JCBN84hSV5SATsjQBdT81mM1xdXUUwPt0LyY5F9xZ5KBsBKZAru/3uWHoOzrNnz8LFxUVQG164cOGO18ofJAJ3QoA8ys8//zwYsCZN8XdCSZ53NgQ4v9Kly9fXFy+99JLw6XU2DGR9HxwCDPisqKgQVsw5c+Zg69at4DkplD+4NrHFm6VAbgsUHewZ1N5QgJo2bZrgwt25c6ccqA7WRkopDoUOJjh5+umnwWyD8pAISAQApjsnHR0DoOnb+/bbb0tYJAIThgB9ypndk4mEDAaD8C0nd7l0YZmwJrDLi6RAbhdYH9xDKYzTdBoYGCg4TGUGzgfXFmp584EDB4Tg4efnJ2jd1FIvWQ+JwP0gsGPHDpFUbcOGDUJLeT/PkPdIBGyBwPXr14V2nP7kDManfzldWC5dumSLx8tnTDACUiCfYMDt+ToyqVCjSZ9GuhkcPHjQnq+Tz3YyBCiALFiwAOQsZ+IKeUgEnAkBKjtIN0eh509/+pMI5qRAJA+JwINGgGt/UlIS1q9fLxRxDDSmC4sMMH7QLXNv75cC+b3h5bBXc7EgjzTdVOg3fvToUWlGddjWUmbBmBI8ISEBjz76KDo6OpRZCVlqicB9IkD/XE9PTxHsTC0k43KkwHOfYMrbbIqAdf0n/Sa15a+//rqYq6k4kX3UplDb9WFSILcrvBPzcA5G+pJxd0ztOBMHyEMiYA8EmPCE9JmM8C8sLLTHK+QzJQIOhwCtjcxkS7eA3Nxc4b8rA+gcrpmcvkDUipNZjRScjG8ICgoSsgH9zeXh+AhIgfy2NuIky13l2bPnMDR0AocPH8GB/QewZ89eDAwMYvuOnRgc3C3+duzYKc7xN17Da4dOnBCmoqtXr01IICWFcQZt6vV6Edixffv222ok/5UI2BYBsq0woycTodA0Ssotex/U8ly/cQMXLryJk6dO4ciRozh44CD27t0nxuLOnbswsGsAe3bvAb/v2jWA3bv3YP++/Th06DCOHT+O06dPCy5fGYBn79Ya+/mcs9iHyOF9angYR48ew8GDh0RGQrpDWdtv75692LVzl/if5/ft2y+uO3rsGGit4f0Twfxz4sQJsflkLgcmZDl27NjYFZS/SgQeIAKUYdhnuYFkLgnKBowlo7sVx95YB4NFL1+5IoKWjx8fEnPn/v37ReZZzqmUeTivUhbi98HBQTEHHzhwUBBJ8B3nz18AXbnoRiOPe0NACuS34cVJfmBwEOUVVTCbExEYGAJXF3csX74Ks2fPw+TJr2Ph/EVYMG8hJr8yRZxbsXwVXF3dERQciviEJFRWVYtOa+/ACg4udnouFPPmzRPChhwEtzWo/NfmCLDfXbt2TUz0jzzyiNgQ2vwltz2Qgtfhw4fR1NyC1LQMaDQR8PTwxprV6zB//iK8PmU6Zs2cg+VLluP116djxozZWLJkGTas3wQ/vwAYomORl1+A/s1bhGB+2+PlvxOIADdXx4eG0NHRicysHGi1kfD29sW6tRuwcOESTJ32BqZPn4VVy1dh+rSZmDZtJhYtWiJ+9/Hxg04fhazsHHR2dQvB44OEjPFWjW5a3HympaUJYVy6AIwXUXm/vRFgH71x44aYm+fPn4/ly5cjNTX1A5WE1LBv274dRcUliI2Ng79/EDZtdMXSpSswc+YcvPrqVCxZtBRzZs/Hq69Nw9y5C7Bq5Rq4u3shJDQMySkW1NU3gAI61wh53BsCTi+QDw+fxpYtW1FaVg6jyYwwTTjCQjVIjo6BJSoaSVo9LLpIZERGIdsQjfyYWNRZUlFrsSA/Jkac42+8RlxriEZidAw0IRqEhUUgzpyA8opKbN22HafPnLm31hnjai5C27ZtAzlIIyIipE/vGFjJn+yDAN1XmKCCSaeKi4tt+pKLly6JTS0n9xRLKsLDtQgN0cCkj0JqTKwYaym6SKRHRiEryoC86BhUJiahOSMTxaY45BiikRllQKo+Csk6PZIjo5BmNCEyXAtNaDj0kQYhoFOoo8aVmiF52AcBLsz7DxxEc0srMjKyEB6hE20Zo9UjLdaIJF0kUnR6pFHQjjIgNzoGZfHxaM3KRpk5XvzP8/yd1yXpI8V90Vo+JwwREXoh2Le2tgkNuq0CLWlRycnJgUajEf64pJK11bPtg7R8qkTgVgRovWS8T3x8PMiSxT8rNSKFdnoB9PT2obCwGAbKLZpw6DThSI01IiXSgGStHqn6SGRGGsScWhhrRGNaOqqTk8Wcmx0VLebg9+UfHSzRMTBHGRASFCrm7MSkFFTX1GLXwADOy1wotzbOKP85pUB++fIVYfLu6elFeVk5LEnJiAoLh7+rOwI2uSLaPxAVCYlozchEd04uthUXY29VFY41NOBsexuu9PWKvzPtbTja0IC9lZXimu6cHLRmZKA8Ph5RfgHiWQFuHjCEa5GabEFFeQV6e/uEifbKlftnqaAw3t/fj6ioKEyZMkXQHI7StvKURMDuCJCPmbELTJBSX18/LoGFWnC6MGzfvgN1tfXITM+EMdKAEG9f+KzfiAgvbyGctaRnoCMrC5sLCzFYUYHDdXUYbm3BxZ5uXNvcj/OdHRhqasKBmmrsLC1Fb14+2jIz0ZiWhkRNGELcPOC9fiO0QSFIjDOjsKAQbW3twvTKQD17a1zt3igO8AJucM6cOSsW4sbGJuRk5SAuOhYavwB4rVuPMA8vZOgj0ZyeLtqyv6AAA2XlOFhbi5MtzXizuws3tmzGha5O8f/B2hrsKitDf34B2rOy0JSehjStDhp3L3it24Aw/0CYY43IzclFU1OzsHLS7fB+/bwpjDc2NopYCWrIN2/e7ACoyiJIBO4PAbqysh8vXbpUbDK7u3vQ2dGF4qJiJMcnQBcSCt+NLghydUdccCjqUixizuzJzcOOklLsq67G8aZGnOtox9X+Plzq7cHptlYcqa/H7ooKbC0qQmd2NloyMlBoNELr5QM/Ps/TGzFUaKamo7qqRig/T5w4Oa514v4QUMZdTiOQc5HljpATNF1SLJY0zJ41D0vmLYL/JlfkRUdjR2kJzna0i4WAi8F4/yiwU5jPjoqC7wYXLJ63EPPmLkB6eqbwSWdZWKZ7EQB4PbU0HFiTJk2Smj1ljDPVl9LHxwdPPfWU8CO8V7cp9n/ew4ma7l4bN7hg/ux52LhiNZI0YejIzhZC2bX+vnGPSY5pCnsU8CoSEqD19sXyhUswc8YsaLV6dPf04vr1G6I89zIuVd/Ad1lBa1syiKyxqRk+Pv6YM3MuVi9ZBmNgkNgUDTU14nJvj03akoLBscYG1FssiPEPxKrFyzB75hxham9uaRPMU+xb99KWnGPr6urg7+8vAuOYBVEeEgElI8D+zzHZ1tYGb28fvDFjJmZMn4llCxZD4+6Jkrg47K2qxPmuTpuMy+ub+3GqtQU9eXlIjdDCbc06LJgzHytWrEJhUQkOHzkqZDGONXn8EwGnEcjPnWNWqz7hSxoaFAJjeARqUizoyc8XWjZquqlZu9rXa5MOyYWfmvRzHR040lCPgYoKdOfloSopGTGacGiCQ2E0xmHz5i13bcrhoNq7d68I1AgLCxNam3tZaP7Z7PKbRMC2CDDwhxk9X375ZZSXl9/1w7m53LtvPzIysxEaHIrwwGAUms1oz87GjtJSHKyrFZoYCnCc5Me7Seb9FOwvdndhqLlJWL42FxUJQZEmWk1gCEJDw1FX1yACtO+6IvJCoRw4dPgwiopKEBKigSYwGNmxRrRmZmFbSQkO1NSIRdqmbbm5H5d6unGypQX7a6qxrbgEzRkZyKQ2PjBYuLSUlJYLi+jdaMsZ0M8AOK1WKxirGDBv71gg2XUkAvZGgJbH+oZGuLl7Yt2qNQj39kFDWhr6Cwqxp7JSaL8vdHUJ7bct5lir/EOlJC2YO8vK0JGTgxJq44M10ARrkJySioHB3SL2zd71V8rzVS+QcxKmr2t1VTWSzAnQBwQhOUIrOuNwW6sQmm3VAT/oOVyITjQ3Cf/zpPAIRAYGIyk+EbU1tYJhYCzNIgVvZuAk5dyaNWvETlcpnUyW0zkQoI+tm5ub0CyWlZV9IP/t0PEhtLa0IT01HdFhETAGh6DIFId91VXC/eSDxpOtfqeAfq6zAz15+ciINEDn6w9zdCyKC4uFiVUKZB/cf0+fPoOurm7hmmLURSI6MAi5MbHYUVZ60/3EVu011nOu/8PNhZbJnOgYGAKCRNwBXVlIB3f27Nk7VoYB/dSGk8eZ7oDUkktGnjvCJX9QAAKM3yAbSllpGeJjTdD6+iFNpxcKD855dD8ZazzZ8jdunA/V1aE8PhHm0DAYQsNgSUpBU2MTjhw+ogA07V9E1QrkFGCpfTt+/Ljw3w708kGYpzf68vOFxs2WHe1+nkVzTmdODoLdPBDk7YvMtAxBS8TI6Nu13txUkE6IvKLMwHnq1Cn79wz5BonAfSJAjvLXXntNsKLcHgTHvv3OO+8KaqzqyiqEBgTBc91GEbNB14P7GUu2vIfuLNQYJWjC4OvqgcgIHbZv3SaowG4fl/cJj2puIx40OVOQbWtpRVhQCLw3uohgr0N1tRO62I/WB2ihpFaeAaHeG10REaJBZ3sHLl689C+bRfq879ixQwQpL1u2DFVVVappJ1kR50OAY5PWHlKHmqJj4e/uhZjAIAyUlwlPgNHGy0Seo9tavSUVnms3IMQvACWFRYIumhtgZ55nVSuQU7Btbm7BurXrhdm0t6AAh+vrhY/URO4K79TJ6RrDHeqh+jp05+cLEytpvzo7u27RyrBzklN06tSpIkKa2n7JCOF8E6ySaswssSkpKfjpT3+KhoaGW4rOCZf0haQiNGrCBZPG3urqm24pdxovE3WeQaEMDj3e1IRtJaWoSrEgwMsHmVnZYoMvfR7/2ZxUFDAINjIqGtqAIDSmZwj3P7qP2NIt5X7bni5Ol3p6cKKlGbvKy1Gflo5w/0DEGuOEsGK1SPLTmvhnwYIFglufWY/lIRFQIgKUGagZLykphYeLG0riE7G5qBhHGxuEq56tYnHud1zyPm6W6c5yoLYW7Tm5SNLpscnFTfCbO7N8ozqBnII4tcklpWWIi4pGQqgGW4qKROOPpwPZ897TbW0gy4A5JBRxhmiUl1di+NSw4BGlmwoD5shiQd9GeUgElIDAvn37RJ9l3y0qKhIaSXLcks0kzhgHY0goGlPTBBsKhWB7jq/7fTa15dSwklLRpNUhNS1dJB6aiERIjt7GTNDU378ZZnMCjGHhwsLBOJzLNozBud92G+0+bhDICEEaRVNYhCj31i1bRQIUKjwiIyNFVsO8vDyh8Xd0/GX5JAKjIcCEhEyylZOTB5M+Euk6vdgkMz5utHHhCOe4gSdzkjEoGHExRjQ0NIpxeTcxH6NhoORzqhLI2YAnhk6gqrIaPm6eMAUGY6L9xO+3g3PHSLqvKF8/+Hp4oba6RlAbMssW3VQYzCkPiYDSECAl4qpVq0SCCtLfReki4bZqjQjyYWDl/Y6XibyPmpxikwkrFi1FdkYW9v7DSuWMplVaCN5+621s2bwFCXHxWDZvIdqzsgU94US2yf2+i1bJ5rQ0LJw1R8QUMX6HQcgLFy5EcnKy0oaXLK9E4CYC777zDg4dPCRoXDetWYdMfaRQRDqqwmPkGKZVksxXARs2Cde31pZWvHnhgtNl+1SVQH7h3Hk01TdgxZJlaErPeL8zTmDQwsgOdq/fGYxEUxK15bUpFixZsAgvvvAigoODhc+4M5txbs448oviEKBWPDMzE7/73e8wd9YcpOkjBSOGI7g03O0YFdzmXZ1C0+Tv4oas9EycPjXsdIsFO99bN25g6OgxxEZFIyYoWFg4uJjaigHnbtvkfq9jOWn5IKeyztcP06dMw0uTJgnr4+XLlxU3vmSBJQJEgMqBs6dPo7SwGG5r16O/sFC4xCpBGOdY5rikUpKxdQVGEzxd3LF9y1ZcueRcY1IVAvlbb72NoaEhlBWXIiUmFjXJyWKhuN9J+0HfR1+v8vgELJ41W2QNPXnylPQbl/OuIhEgq0VOVjZefuFFJGvCMFBergit+GhzAAVPcqJnGeOQnpKKfXv3wZncV+imsqV/s0jwk2+OF66Ao+GklHMM8Nd6emHKK6+hualZuqoocoaRhaa/+OHDR5CXlYP0WJNItmXLfCoTPZ6ZhKgsIRFmQwyaGhpBBidnid1RvEDOhhoePo2CwiLEhmuRHx2j2AV/ZMdn0Gd2pAGxETqUlJSJCGRn6ZRyilU+AtTY0IWspaUVCbEmRPn6iyyMI/u4Ur8zG53OP1DQNe7Zs1f1i4W1Lfv6+pEcn4hwT29sLylRxTy7pbAQ4V4+SElMFhSX95pESPkjVdZAyQiwvzJIPiMjC4bgUFQnJaliXFJTHv+PmLq6unpcu3bdKdhXFC+QM4iTwUWvT5mOIkbPK8RF5W6EEdYlxxCNqdNmYufOXbewryh5EpFlVz8CFMbJ3+3l5StS1dMcqRS3hg8am3Qt21FSgqmvTkVubr4IvlZzi3LRpztHVFQ01i9dIbIZq6YtN/eL2J0VCxYhJtYk2Cmk4kPNvVlddSOtbHVNLZ5/fhLaMrOE2+sHzV9K+J0uvFRKxgYEYsXKNaCXgDMEeSpeIG9oaBJBALkxMaCpQwmd7V7KuLuiQvDohgWHCoYKdU0nsjZqRYCZO/39g5CijxTpk++lzyvhWgaLl5vjERMWgczMbFUvFjQZUxg3R+hA64Atsxk7Qltf6u1BgyUVceFaGI1mkWJcreNS1ktdCDArrj5EI4LOjzc2qk7+IUNeqj4KwYEh2LZtu7oab5TaKFYgJ58xfTjTEpKg9/YT6ekZKOYIE7wty8DsVvtrahDh6YMsSyoO7D8g/clH6cjylOMgcGJoCNXllXBZuUb4XDOIzpZjwhGeResV2VfoVhYZGiaSBzFBjtqOM6fPoK25Bf5uHqhOShZsKtReOUIb2KoM1Paf6+hARXwCgjx90NnWPmZGT7W1sayP8hBg0p+BXQMwRRqQGBomrFa0QtpqTDjKc7h2bC0qgu/6jSjJL8TRI0eV11j3UGJFCuT0aTx39hxMMUZkx5qws7RMROg6SieydTmowdlWVIzMmFgkmhPApBXEQB4SAUdCgH2S7g3lpeUwhWvRnZsraEdtPR4c6Xn7q6tRkZSMYP9A7Nq5S1X+5GzL1uYW6IJD0ZyRCTVq4Eb2JfKoN6SmQRcSis6OTlW1pSPNE7Is40OALlWkNwwLCkVxfILILDyyH6vtOzfLfXn5SNJHITc7R6wxapV/FCmQnz93Ht2dXfDz8EZJnPl9rY2DJhexxeCgBofE/vmxRgR4+6K/r18I5eMb1vJuiYBtEaA/I1M1m2OMiAkIEhSeatTajBzTF7u70ZOXj3XLV6K8tAwnTpy0LagP6Gn01+Sin2FJQ5Crh7DSqdECObItmdVzd2Ul/Da6Cr55ZpyV/uQPqAPK194RASYNrK+tw6bV69CUni5oPEf2Y7V9pzWSrDFJYRHQh0Vg9+49qmW3UqRAvn37dhgNMYgL1YDUVWrrgHeqT2d2DowhGsTFmkSK2TuOWPmDROABIHD69GlYUixCO07zv1oC/+40Hq3nmdDCHBSCuCgDGhuaHgDytn/l9WvXUZBfAJNWj1xDNM62tzvFPDvc2ooMnR4mXSRKS8pkIL3tu5Z84jgR6OjohDHSAHNwiKJpZK3z591+1nFt0YTDHBcPbpbVeChKIKeXxltvvYWy0nKsWrxUpFs93dbqFAsFOy0zeaout/EAACAASURBVDampWPloqWoqa4RWKixU8o6KQ8BJq4aHBjEyuUrRRDysYYGpxmXF7o6weDrEHdPGGOMoKVAyZpVasephfP29EZcSCgO1dWq2iVwpEBAKwDJAWIDgxHoHyjoZt999z3lDUhZYtUhwDmFrHKpllR4rl0vmJ6YeXZk/1Xz92ONjcIjYt6suejt6VXlZllRAjl9Gnft2gVLYjICN7nhQE2NqmgOP2gwXe3rEyZV73UbkG5JFaYbtfpSqW42VXmFqLGgy4bH+o1i06h2V5WRY5XZ8Bh8nagJQ2RYBHp7+wTlo1KbfHh4GA31DQj08kGxKQ5Kyqo6sl3u5zutOqxvXkwsgn38wBTeZ86cVWpTynKrCAFycW/evAUmQwwMfgEiqJwUrPfTz5V4D9eUnrw8rFu6HIV5+Th48JCKWvf9qihKICezSkZ6JuK0OtB8oeRsVPc7IGgRqExIfN+UnJunaE2c6kaTE1eICYB0oWEi7TEDHe+3fyv5vq6cHFgiDdBG6BVtUt26dRtCg0ORHROLnaWlTtmWW4uLkWGIRlhImMgB4cRDW1bdQRBg1mOj0YQkfSRaMzOdxmo1ck040lCPwlgjosO1qK6qcZCWsV0xFCOQv/POuzhz9iz8fQOEGZWUY2pKAjSy0431nbtEZrGiSZWLJqnWnIEw33ZdXj7JlgjQjHr12jVkpmfCdfVa7K2uEtrisfqwWn+jgqAiIREL5y3C5v4tinQpo7tNVWU1lsxfiN78fNUHjN2pL57v7BSUnYvmLkB9Xb3qkz/Zck6Qz7I9Alaa57Wr1yEnOlpVybnuNAZHO0/GuaGmJhFoHmcyg/SP7733d9sD/oCeqBiB/Nz58+js7IK/t6/wUXWWgLHROiVN5KlaHQJ9/dHXv1kyrjygwSNfC+HHt2tgUAQaB7t54FRrK9TGUz3aGBztHOckZstbuXgZysvKcXxoSHFdZN/+A8hIS8emFasFnZqzzrOs986yMqxdshzZmdk4eOiw4tpSFlg9CJw8dQp1tfVwWbcRVUlJThMwf/s8KzJ49vchytcf+ggdduzcJRRCamlpxQjk9BdKTrIgOkSDhtRUpzSjjuycNcnJAovUtAwcPXpMLf1R1kNhCFy5ehUlpWUw6SORqY8U9Jwj+6mzfd9eUgKdty+SzAlis6yw5kR9QyPM0TGCwYG83M7WfiPry2DWGP8AxMcaQZcseUgEHhQCFDwT4xNhCAxSZebjkePug75zs1wQa4QxQof8/EIReP2g2sXW71WMQL5ly1a4bnJDdnQMdpWVOfVCwQ67vaQYGVEGuLp5YOeuXbbuF/J5EoG7QuDChTeh1UbCFBaOzpxsp3VXsS4iR+rrUW6OR4hfAMrLK+8KQ0e5iAHiyckW6INC0JSWJoLGrPVyxk+6BtYlp0AXFIL09ExHaSZZDidEoLGxGT4e3iiKi8P+GueM0bHOQdSS9+blIUmrR2BgCI4fP66aHqEYgbypqRmTX3rVaYM5rZ3R+imCOxMT8dKkV4Qrj2p6pKyIohA4ffoMli9fBVNQsKDldKaof+tYHPl5obtLuHqsW7oCCQlJimpLCuS+vgEIdnHDUFOjUwaNjWxL+qsebahHwCZXBAdrFNWWsrDqQiAvLx/zZ85Bf0GBSIQ4sp8643dSQGdERmLW7LnYt2+fahpbEQL5+fPnUVJSipnT3hDmGmeiVLvTYCMG7VlZmPLqVFRVVePNixdV0yllRZSBAN1Vdu7cidWr1iBDH/k+Pd6WzU5tvWKg+XBbKzzWrEdMdCxOnzmjiKDr6zduCJ93Xx8/QalGYdRZ/cetcy5jdS72dEPr7YsA/0DQj5d5MOQhEZgoBBg0f+bMGVgsqVi9aKngyHdGMgvrmLR+kpq01ByPeXPmo6urG5cvX56oJrHrexQhkO/Zuxc5mVnwWrsegxUVTr3gWzskP3eUlmLTilXIz8nD/gMH7NpR5MMlArcjcPLkSdTV1iHI0xuMaRjZN535O4W42IAgxEXHghSCZC5x9INKj/aODuhCQkVmTmduv9vrzs0mKT27e3pkAL2jd2SVlY8J17bv2IGUhEREeHrjRHOTnGf/ofRpy8oSeS8qyytw7Jg63FYUIZC3trYhLSEROVEGHGu0X6CR0Ih0d2G4pRlDjQ041lCP4w31ONncJILVRmrmeS13aWfaWnGiqfGWa8+SkrGv1+4apsN1dUjT6pCemCzdVlQ2ESuhOrv37EFqigXpUQZsLSqy20JBTS3HHqlOOdY4Jjk2+Z3nRiausV57rqP95rjktUONjRhubRE+7vbW/LKsVYlJSDPGoaSkTFCTOnp7ckFLTUtHekysoPu7XSi19f9XenvBefJ4YwOO1tfhVEuzoFi8vW04z77Z3SV+t7Y75+bT/2hLW5drtOe1ZGQgLToWWZnZOHHipKM3pSyfihCgRaaqugZpcWaUxpntmnuF7obMOsyxaB1rHJ+Uf3ieMs3I8cH/OYZPNjWJ+fhYfb34zrmXz7I329ZAeTlS9XqRJHHb9h2qaHVFCORc1GLCtSiKNeJ4U+MtnWJkBxnP9+ubNwtBvNJkxJpZM/HiM8/g2Z//HH/45S8xe9IkpAQFYk952U0hm4L45rxc+C1fjlf/+Ec8/eTP8PunnhLX6l02YX9lhd05fEmSn2swICZCh6rKKlV0SFkJ5SDArHFaTQQyIqNEGufxjL+x7r3Y3YVdJcXQrFuLN158Ab976ik8/bOfYcqf/4zQtWuxtSAfXAT4DGbM3FlchBgPD0x//nkxhjmOX/nDH7Bp/jy0WFLEJnqs9433Nwrk9RYLEnR6JMQnKoIFYN++/dCEhsOij0RPbq5d5lgrrlzIdxQVQueyCX/5zW/w1BM/xKo33kCF0fgvQcEUvCuMsVg6dQr+/Otf45knnxRzs+fiRWhLS/0XIcH6Dlt+dmRnI1mnhy5Cj0OS/lA5E5QKSkrrGgOKmQyxOiER5zo67DI2OSap4MjRRmD5tGn4069+JcbaX3/zG8x/ZTLy9TocrK66+W7OcQeqqxDp5opZf/sbnv35k/jtz36GmX97ESYvTyHEU1Fiy3F4+7P2VFaKtScqQov2tnYVtDagCIE8MzMb2oAg1CQli8Cx2xvGFv+zQ2aHhWHuyy/hkYe+g+9985t46Otfx3e+9jV84ytfwfO//S0oaHPhp4DAxWD1zDfw88cfw0Nf/xq+981v4Fv/8z/ivuf+9+dCUNhWkG/XDsnAq/L4eEQEBCE/N18VHVJWQjkIdHZ0icj/3JhY7LajK1lPdhaCVq/Cr378Yzz8zW/i2xxn3+B4+yp++eMfYf2c2WJzzLG5p7wcPsuWCqGd133/298S1/P7ow89JDbbVXEmu45LziWM74gPi0BEuBanT592+EYdGBiEq4s70vRRdrV2HK2rFQL2pnnz8PSTT+Lzn/kM/r//83+EYJ4eEnKLEoPa8oJIPRa88oqYXx/+1jfFfMw5+Sc/+AG8lixGZ2aG3RPEMZDOoouEl4c39u5VTwCZw3dKWUBcu3oNxlgTYkI0aE5Lt1tAJ7Xi8b4+QsnxyHe+I+ZXyj+cN7/+5S8LhUZyYICQfWi1omwT5eaK5/73f8Fx+Y0vfxnf/OpXhcz0wjNPI8HPFwftzAZzoKYGhUYTgn39hOukGrqLIgTypMRkaLx90ZGVjdPtbTZfTGle4WK+6LVXxYT/5c9/Hi88/TTeeOEFoY357Kc/jY//53/ij7/8JfZVVuBwbQ2Mnp74wmc/i//+r//Ck48/hjkvTcIrf/i9EMg/8bGP4YnvfQ952oibGnVbbBpufwZpuWhODfHyQVpquhr6o6yDghBobm7BxjXrUWpOwMHaWpuPS/Z3jk1O7k8+9ig+9fGP48ff/76wSHG8/eDb38YnP/YxfOmzn0VWmEZYsGrizfj544/jK5//PB7/7nfFBnvKn/+EJx97DP/xH/8hxrfnksV2Kat1fDLoakthERLCIsAgyVMnTzl8q27fth3Ll64QtLK7Kyrthk9HehqWTZ2CJ77/sFB0cLH/0P/9v/8ikAvzeWcHFr32mriO8+zLv/+dsHpQCOB8TM06rSa0ilixt8fnQFk5MqMMWL1qLQYHBh2+LWUB1YPAlStXxaY+OigEffkFt2xYbdXXOV8Nlpbipd89h29+5StCCKfVn9ZIWv0/9tGPivFGTfix+jqxKbAEBeLXP/kxPv3JT+JHDz8sxubrf/4zfvjww/jh976HWZP+hv7cHLuOS+ZJqElOgbeLG8rKylXR6IoQyMlWwCyATLpxvtP2Jps3uzqxr6ICK2dMxwtP/1YsGFw4DtVUozEpEX/59a/xxc9+Fv/7+OPi//qEeHguXgwK7n/85S8Q7e4mrt1bUY7l06bi4x/9KP7zox+F0ctT+LfaauDc/hym6t5aVIwAV3eY4+JV0SFlJZSDAAM6ly9aKqhIaa25vX+O939qSLlRpnacVqqHv/UtaDduEO5g3BRvmDtHaGe4YGjWrUN1XBzSQ0PF4kBLl9HLC7vLy8BxafLywkc//GGxuFDjeruv8njLOvJ+CpN7q6qQGBaBDes3YWjohMM36ub+zZg1cw4KjCYwNmVkfWz5vdoch5d/95yYP72XLhUufp/51Kf+RSBnu28vKhQaOM6zf/jFL1CfmCAUIsWGKLGx+sJ//zem/uUvuGCHNWFknbnZpBVo3twF2KESX1WH75CygAKBy5evwN8vAIaAQAyWl4PsRyP7pi2+c6z1ZGVixgvPY9Jzz8JtwXzh9neopgZ5Wi1+/thj4Bh98Zmn0ZmRjr3lZXBbsAD/9clPCu+AsPXrsK+iHAeqKpESGIiQtWuREhSEQ7U1Ni/ryPpSIdmelY1Nq9YiP69AFT1GEQJ5eLgWfhtdcKi2VtBQjWwUW3ynPxR9FTnhc7JvTkkWwQrsqI1JScJflZM//Va35OVisKwUTSnJiPXyRGGkXnReLsIMcFg3ezb+8yMfwUc+/GEhEPDZtijjaM9gsBPNNl7rNiAy0qCKDikroRwEKioqMXfmHLRlZorgytH66HjOUWim9rM9LU2MpeSAAGwvLLgpTLsvWihMpBS0w9evR3dWJrYXFqIk2iDG8mBpibifvo+Rrq5CE8uN9dpZs+w2Jllflvt4YyOSwyKwZOlyHDvm+Jl0e3p68dJLr6LMHA8udONpt7Hu5eYoJyIcXZkZyNfphL8qLZD0JR/pskJNXGl0NH726KN46Gtfw9IpU7C7rFRYTBi7Q/clas2pLafixJ5acnIeFxlNePXVKdiyZYtyBqgsqeIRuHTpMlxc3BHlFyA48e0hT1zu6Raa7/LYGJRGG8TY5HhinFxuRDge/c53hED++p//JOZfykdzX3oJn/rEJ4QHgdnXB10ZGag0GpEdHo6ymBghI9l7o3yus0MoJFctWoqMjCzFtzUroAiBPCxMi2BXd7Ho0z9zrAnfFr/RR7wjIx252gj4r1iBJx7+Hn70/e+LxYMR/rcHK3ABpjDearFg2l//Iszo9HWlGZ2Cui3KNNozxEairU1sVqRArorxqKhKMBPlvJlzsLmw0C4b5dH6PM/RSjZQWiK0q//zxS8KS1VygL9YVKz3cAwfrqlBjTlOCPPzJk8GN9UMUor39bXbmOT7OR9wscjUR2HJkmWKEMi7u3tEkrE6i8UuZnFru9D/lPMWMWpOSbmjQE7XwDgfHzz23e8KEziD5xlExucwwPdvzz4rrJZP/fCHIn6A86/1Hbb+JMNEdVIyXnnldTCQWR4SgYlCwCqQm4JChLXQnvKEddww6WBjcpKQXzbOnYNvffWrYmPM2BwyqXAj/dJzzwkhfdpf/wrGg7guWIC5L7+MDXPnIsHPTygp7eHNYC0jP2kt2F9djTVLliNDJZl0FSGQm01mxIVqbmrGRjaKPb7TVENmhv/6xCeEjxSDHLggUDMz2oDgbpLMDvSxomn9q1/4AtbMnCl2mvYo38hncmGLDgxGksKyAk7UhCbfYz8EGusbsWn1Whywk//4yH5u/c7+vqu4CK4LF4iATWq8//SrX4oNNH+zXketKTXqFNhpseInTa60aHFTbb3OXp9kbapMSoa7iztOnHB8l5WtW7Zi4byF6CsosDtdmRXzsQRy+rSGb9gg4gQYwBm2bp3QhPNeWigZF8B5lhp0auxO2ZGfmfRtXXl5WLJwCXbu2Gm/ASWfLBG4DYErV64gJCgEOTGxEyb/0F2XgZqM2fncZz4jNsQM4OS8e76jHZagIMHCQi8AxvHQpewjH/qQsEB++EMfEufWzpopXM6sY91en6fb2hDo6o7iwqLbkFPmv4oQyCMi9Ah19xQ7RAYg2Ktxrc8lB+eCVybjJ4/8QEQO0zTKRd/g5ia0c1ahnAIANTOlMdGYP3my8Gt85DvfFsEQXCTI32l9pj0+aS2gH3mgixsMUdHK7IGy1IpFoLKyCgtmz8fW4mK7+DaOHDMca+zvdQnxglWFm2QyADAQiUI2x+zI6/l/cVQkfv+Lp4SfI4M8v/alL2Ht7FnCnWXktbb+TgGOWtXsqGgsW7ZCEUkr6LLyyuTX0ZiWNmHWjrEEclpAGBfw/W99Cz995BHhkkRFCdvqfYH8zzcFcroP2nOupWtgbUoKXn99GrZs2arY8SoLrjwEmIHSzc0D5hDN+7LHCKWDrect6/O25ucJX/InHn5YMKwwcPPl3/0OqcFBgqOcGvDf/+IXoPBNxiO6r9CPPHDVShFQTxc0zs90ObOn2wo9FRjfsX7ZSpCJTw2HIgRyuqz4bXDBkfo6u/oKWjskfcczNaEimGzJlNfx2EMPCRqg1//0J5CCjSYd4S7S2oISg0HQcjE6mZ1w3uSXhY8kO+JIjZ312bb8vNjdjUN1dcKHXK+PUkN/lHVQEAJ0WZk9Y7ag+OPG0JZ9e+SzOI6sZtTVb7yBH//gB0K4fuWPfxDmUW6Kb3dl4xgmP3m0hztcF8wXJlZavP73hz9E8JrVdnV/Y3mHmpqED/nixcpxWfnbpFeED/lwa6vd2nJku44lkO8uKxN+/5xTf/yD7yNkzZqbGnIK65N//3t8+XOfE7SzDDRjDNDIZ9vyO33qi01xmPzKa9JlRUHzkxqKSpeVTZvcEOXnL5Jo2cOH/PaxcqSuVlAgBqxcIaz+VHzQBZdxHIzTMXl7Cw05g+nJXkUWLCpAGNS5+PXXhMacwnqcj/ctboS3v2e8/5/v7MS24hKsXLRUcLWrob0VIZBHG2IR5OaBnaWlYCOMtyFvv19o3/r7hGaIjCuXerpuCtP7qypFQhEuDOyUERs2CP9VBjz05mQLn1Rq0Gm22TBnjghAu/359vqffqpknvF3cUOcyayG/ijroCAEamvqsGzhEtRbUu2a0pkuYaTQmvKXPwuNDbXdDDCitnxkMB8tV9SaUKNJH3Lr4sXzNXFxePyhh0R8B5N+MTGNvbQ31/r7sa+6GklhEVi/bgOGhoYcvlX7+zfjjRmzBa/vkfpbrQ32mr/GEsjpL07TOLV0pK8k5zjnYpaF7oF/+vWvhDn9Vz/+kZiPaZGwVznJOpMXE4s5s+dhu2RZcfi+rKYCkmXF1zcABv8g7Kmo+Jf4NVv0eSH/9PWKOZNzJ+dUnuOz+3KyBR006UkZr8Hg+BhPDxHDQeaVGc8/L+J0rOWgpvynjz4i3FdC160VY9P6m60/qTjozMnBxpVrkSdZViau2ycmJAke8q6cHKHZsnXDnmpuRltqKlbOmCHcTfxXLL+pjeEiQA3bow99B9/9xjcQtGoVtubnoy4+Hq/96Y/CN5V0iH7Llondoz01NbfXmx2yLTNL8JCnpqZNXIPIN0kEADQ3NWPD6nUoj08Ulprb+6et/md2zXWzZ+GbX/2KENBotWLQNd0UGCRofc+2ggKRrIJ8uAw0Ko+NBTfYXFxq481CsCNvOZN8caGhFt16ry0/6Va3rbgYCeER8PHxxUkF8JBv27YdS5csR050LJgBz5Z43OlZYwnkTFTSmmrBL554QmzCZr74ogjmvNLbI2JzyHVMgYD5Init1Y3wTu8az3nSzWUaorFy5WowgZI8JAIThQB5yMPDIkAe8v6CQtAqPp6+PNq9R+vrRJZc5naY8/JLYg61zo2cJ5e8zlwAXxbacO3GjYLFigGczAXwm5/+VJBfWJ/rsXiRYL5iboEYD3eRs8X6m60/jzU2oDbFAi8XN5SWSh7yieqTgtKGmTrrklNwqsX2psnh1hZ0ZmSIxD8iUOixR4XPYlZYmOhUf/nNr/GVL3xeBDeQZ5OaOZq9GVDGgDEuGmRjyQoPE7SJpE7kH7Vw1o5t687I59EsXpmQKDJ15uXJTJ0T1iHliwQCHR2d8Hb3Qn6s0S5CHIVtbnAjXV2EME0z6I++/zBWTp+GfJ325lgjVRc16KQtpWuD1X1szksvITUkGBmaULGppmb905/6FMgMQN5catHtMS7pPtOZnY348AiEh0coI1PnrgFs2uSK9EiD2EzYAxc+k+m5SXlIYTvW01NkACR9GudQn6VLhaKDwfOkRyTX/Kt//AO+/qUvCTclaufYlr7Llom5l/7l62fPtls7WjEgi1CqPhIeHl4yU6ec+yYUgatXryE2xigydbZmZNglU+fxxgYhZFtdAUklavbxQXZ4GELXrsFvfvITfO7TnxZEF6QsJfUsxyBlJc61K6dPR25EhPij9ZGuZAyiJ0udPdmPDtbWoMgUhyBfP9TW1k1ou9jrZYpwWSkqKkF0WASKY42wRwISmrapbVv46quigzHTJt1T6B9F/8VPfvzjgvOW2hgu/GkhwSIhxb//27+JwIaHvv41/OGXv/iXv3imj/0HVZd1crfl59GGeuQaomEI16K8otJefUQ+VyIwKgJ0cwgL0SAjMgo7SkpsLtxSG0r3BGZr/Ld/+zfxxyCiZ5782S1j7a+//Q3CN6wXWh5y6dK0ykCkz33m0yKbozU4+6Mf+YgY19TijDTL2nJM8lmcTxosFsRrdYiLi8fZs+dGxc+RTjIlfHBQqEgR35OXZ/O2tGLMGBwmFVkxfTpe+t3vxEaLbA3UwP3hF0+JeJzQtWtRYzYLrTetlWRSIePDzx9/TLQt52ZqxxnTQ0HA6ppkfYetP7m5Stbpxebq4MFDjtRssiwqR+D69eug9dsUrkV1YpKgU7V1/6abH5Nwkcrwq1/8ghhbjJuj5f/Rhx4SOVXItsJka6QcpdWRgjkzlzOA87tf/zp++aMfiT8K6XRvmfTss2LjbXV9sXWZ+Txa8jIjDdCHRaC1tU0VPUERAnlzcyss5gTkGAygmcLWjctOw8WfWhtybf7iR0/gG1/+stDCfOULXxA0PhQKyL9JjTejjf/2zDNCQPiPf/93fOTDH8KnPvHxf/nzWrJEdGBbl9f6vMP1dUjX6ZGakIj29g5VdEhZCeUgMDi4GymJKUg3GLC1uMjm45JCMwP2SCdqFchJr/XJj3/slrFG7Q0DjiqMRhFERCvWjBdeEML3lz73OTGOv/21/8Gvf/oTIbgz9sOeCwUFxKqkZKQaTSgsKsabb150+EY9evQYkpNTkRYTi47sbJu3pXXOIiMO/cKpQeOmiRZGzqG0flDo/vxnPoM///pXIhiXbURtHDdbTz3xQ3zti18UXPIPff3rmPyH3yMzTIMTjY12bUuWuyUzE6kxsUhLz8CQAigsHb6zyQLeNQJvvfUWKiqqkGoyo9RsFqxq1rFkq0+OM2qya+PjhWvgzx57FJR76AFAZioK5Ux4WGkyCmsULZe0XtELgHE9dOfltbRAUvmxbOoUNCUnC1cyW5VxtOcMVFQgVR+F1KQUbN267a4xdeQLFSGQDwzsRnZGJgJcXLHnH4E9ozXQeM6RqoxMDtTgcEHnIkAaH5rAYz09UJ+QANJusfPSpEotueeSxWP+VceZhIl2POUa695dZWXwXLseedm50pTqyKNMpWVjSvjqqhpofP1Rn5pqcyGOrh8Hq6tF+uaxxprPsmUo0OtFJkdqe5hUpsIYi2h3dwSuWiX+dJs2iTG7rSDfrmZUjlduJEhTZo6JRV9fP65du+bwPYBafCo+ojThKDQabd6W1nmMzDdh69fDd/myO86dZHFoSbWIMlAbtyU/D8mBAcJ8HrByJdiWRYYo0c723FhZy5xjiEZUWIRQely4cMHh21IWUD0IvPPOO9iyZRssCUmCaeVES7NdxibjXqxxGwn+fmKsUf4h9ajJ20soK4+NoJalAvP9bLqGf8yzKwUrHV1d6DpIAd/ulqucHPi5uKO8tAxHjhxVRaMrQiDnYlFcVIJZM2aiNz8fE8FFbp2MHfWTGHRk52DKa1PBFObnz8uFQhUjUkGVIEcugwFXr1qLrKgou0/AjjoWR5aL2qMz7W1ioxxtiMGpU8PgouroB03jXNR8ffwQHRAo2nIihN2R2Dnad9afGzydjy/8/QIFW86NGzccvSll+VSEwN///ncMDw8jJcWCNUuW4UBtjV0DmB1tDN6pPBT2y+MTMG/OfHR0duLSpUuqaHVFCOTvvfd3NDQ24dVXXkdDaqpdAyXv1AEc7TwX/aqkJEye/JrQ3HDgykMiMJEIsM+RQWTFytUwh4SCfM32ZLtwtDE4WnlIG7a3qgoblq9EQkIS3nvvPfy///f/JrJZ7utdLOM777wLP78AhLp7CBpLe2u4RsPPkc5RGKeLZJCrG4JDNIppy/vqAPImh0WAc0hubh4WzpmHLYWFdgnsdKRxdzdlOdXaiqwoA+bMmY/du/dALfKPIgRyjhQGkK1ftxG5MbHYXVFhF7PN3XQER7mG7ipZ0THYsH4Tdsh0zg47maq9YDTha8IiYNKEozcvz+4ZOx1l/N2pHBTgqpOSEOTti5KSMkU1P4Xy+Pgk6AKC0JaZaRd/1Tvh5ojn6cLYlJYGMnxZLJJWVlGdWWWFra9vhKerO8riE0R2SkccLxNZJjIfJWv18PX1x7Fjx1TT/qsEVgAAIABJREFU2ooRyPcfOIB4cwKMmjA0p6c7vUBeb7EgVhOOpKQUHDlyRDUdUlZEWQhcuXIFBYXFMOkiQV9beyTumsiJfrzv2llWCoN/IOKNcWA6eqUdNTV1iIuKRpImzC4B9OPFdyLvZ0KguKAQmKNjhYVWaW0py6seBOgaaDaaERscgr6CAqeWf+hKVmKKgzFCh6ysHJw9e1Y1Da0YgZygt7S2IcDbVyz8EzkxO+K70nWRCPT1R1d3D87LQCPVDEilVYQsANu274ApxgiNuydOt7U59WLRnp2NVUuWo6S4BGQuUdqxe88epFlS4bZqDfbakbLVEefU28s0UF6OdUtXIDM9E/v2H1BaU8ryqggBsvtUVVXDbf1G1CSnOPUcS4E82j8Q+nAdtmzdhqtXr6qmpRUjkL/99ts4efIk/Hz9hb8qfaidMbjzal8fhttaERsUjJCgEMFx/LYCgsZUM2JkRW5BgL57Fy9eQlpqOtxWr8W+6qpb0tnfLuSo+f9zHR2oSEzCwvmL0NvTi2vXr9+ClRL+uXzlCsrLKrCUdcjPB33i1dxmd6rbha5OdOTkYNG8BaiprsEVFS36SuiHsoy3InD9xg2RJXbt6rXIjY4RcXTOGHTNuI4Tzc0IdvOAKdaENy9exLvvvncrWAr+TzECOTGmNi4xMRlGEsFnZuJ8Z4fTLRZn2tvRmJaG2LAIpKVlgAGv8pAIPGgE6usbEOIfiHLSg9bVOd24pGBHv8a0qGgEBgbj0KHDD7pJ7vv9pGr09fZFgSkOuysrnbItd5WXIyfWCD8ff9VwHN93h5A3OgQCp0+fgVYbiSRdJJi8yxmDro83NaIqMQm6EA1KS5UVo3M3nUhRAjmjjbdu247k+EQEu7qDiXGcaZfIuu6vqYbvhk2wJFuwc9eAIhgc7qYjymuUjcChw4dRXFgMz/Wb0JKRCdL/3Un7qLbzHJe01iWHR0CvCUdHR5fQ3Ci1RcmcU11diyAvX5SZ452OOYdMQYVGE4J8/NDQ0ITh4dNKbUpZbhUhcPXaNXT39MIYGY2YgCARr+NM8g/XlP7CQqxfvhK52bnYt099bmSKEsjJAsAgspLiUqxbvhKdOTk440Q+q8OtLSJr3JplK1BZWaUq3ykVzZtOWRXyM+/YvgNrVq0RJtXjjY1OI5BbqQ7DvHwQG2MULjzvvvuuYvsB3QOPHTsutOQJmnAcqa9zGm0cTeIHa2sRF6JBUEAwTp06BeIhD4nAg0aACslLly4jNSUVPhtdQKY1Z/ISGGpqQnlCIhbMW4jOzi4wd4LaDkUJ5FbwN2/eAr1Wj2StDluLip1m4e/Lz0diuBZR+ihJdWjtDPLTYRA4NTyMuLh4mLU61KVYnMZ6RUtdWoQOsbpIoVl2mAYZR0GYXTQzMxsmrR4lcWbQP15tlo3R6nO6vQ0FMbEwavXIyysQbpLjgFHeKhGwOQLNLa0waPVI1eqwp6rKKcYlx2pLRgbiI3SIjIpWtEvgWB1CkQI5GVfa2trh4+6F0vgEwX18ffNm1XZMmqWYjrvAaIKvpze6yawiM3OO1a/lbw8AgWvXrmNgcBBGQwyiA4NxvqtT9e4Ol/t60V9QiDVLV6CkqATHjw89AORt/0pq+MkskppsQaCrBw7V16k+iJ4+uftrauCzwQUZqek4eOiwSAZke3TlEyUC94/AiZMnUV1Vgw2r1gqLOa06o20u1XKOrioXe7qRFB6BiNAw4arLLNFqPBQpkHOxoCnRGGNEjsmMgYoKVZtUOeDIb5xlNAkudm5IaL6Sh0TAkRAg48qNG2+htKRUaFb7CgpBjaNaFobR6kH3hiqLBUEBQSBX8DsqYTyieyCD6Jsam6APCUNrdg6GmptV3ZbHGhvRlJkJbWgY2lrbhKuK4+dYdaQZQJZlIhDgHLNv3z5oGNiYmIx9NTWqHpd0y9lSVITkqGhkZ+WA7pFqycx5e39RpEDOSnCxoM9qemIyzCEakcRCjTvFS709OFRXC2NQMLIsqdi5c5f0aby9F8v/HQoBMoyUF5ciwMVdUOddVCF1HoM4z3a0o4gJKrR64dN4/vx5h2oHWxTmxNAJ1NfUIdwvQLA7kQ7w+hZ1WSNpgeSiX2exiCyljQ2NYGCrPCQCjooAfcn7evuREB2LzMgoMRdd7etVnWBOzfiO0lKEe3qjKDdPbEQctU1sUS7FCuTWyldWVsPfywcVCYki+Gg0LZaSzx2srUGJ2Qx/L18wfa48JAJKQGD37j3YsNEV6VEG7CgpUd1CQWGcGYOjgkORkJAEJQdxflB/OnVqGEFBoUiI0IJxLGrL/3C5txddOTkwh2sRHq5TVea/D2pb+buyEWCcR5h/IBosFpxsUZ8Fa5D0ozGxcHfzRF/fZmU31l2UXvECOVlXOjo6MW3aDJTHx6tu4S+MNWLGjFno798MBlrJQyKgBARowRoeHoaXpzfCPbxUNy65UMycMl0EPl68eFHV9KPcbJw5cxZ6fSRcVqxSXbIgJplbs2gpDIYYkfVYugMqYYaRZSQCnHvKyysw6W8viU2lkpWPo5XdHByClSvXiCBOuqqo/VC8QE5fohMnTiI1LQNxWh0q4hNUsfhTC1ViihO+uJlZ2Th95oxq/abUPsicsX70QaYgV1NTizhDNJJIn9dQr4qx2ZWTC2OoBua4eOFCplZ/Rmu/tbZle3sH4mKMMAWFYLCiXBVtSXM4sx7HxZrQ1d0jYnNYX3lIBJSAADeP+/bvh9mcAFNYBJrS01UxLk+3tSFTHwlTZBRKSspw9eo1VSs9rH1N8QI5K0Jt3NGjx5CblYN4nV7sFIdbWxXbMU+2tKA9KxumCB0K8vIxNDQk/catPVZ+KgqB06dPo7G+AeFBIahOsYAuWKNpQpRwjjEq24qLkRVrhCnGiMGBQag12n+0TkYf+e6uboSHaFCSkIjdFRWKbUv2N1o5Cs3x0GrC0d/XjwsX3hyt2vKcRMChEbh69SoOHDiIlMRkpBqi0V9QAMZ6KGFOHa2MRxsa0JCWjsjQMFRVVIIuc2pXelg7mCoEcmtlzp89i7rKKsyZ9oYQypWYxYoUP60ZGZj3xmw01zfg4oUL1urJT4mAIhG4euUK9g4OwtvVHelancjiqbTAQM4lJ5qb4bF6LSwJSTh96pRTMh3RbHz8yBFoQzQw+PgJWkulzbMsL7Nxaj29ERmuxUkqPN56S5FjSxZaIkAEaNU5MzyM/KwcrFm4BHsqKxWZB4LyDz0D1i5fha19/bhy6ZJTNbCqBPJ33n4bRw8fQWF+IUK8fWEJjwA15eSXHW0n5kjnWEYGZSSEhiLE1w+lxSUYOnZcNTRqTjWqZGVvQeC9d9/FpYuXBIVejFaPYBc3oZ282N3t8OOScwR9jKsSE+G2Zh3SUyzYuX2HEOCc0bWBmqob16+ju7ML8bEmuK1cje7cXMVo5M51dqA9Kwsbly1HosmMvp5evKViGrVbBqL8R9UIcFO5Z/ceZGdkwdfFDYw/49xFIdeRZJ3RysI8K2ST03v7QBeiQW11Dc6dPavqYPnROqOqBHJW8Pr1GyLtc3pGFgzhWuQaojFQVu7QmebI2EBfxuwoA6LCIpCVnQPSjb11Q2ptRuu08pzyEKAgd/r0GdTU1iFCEw4LqQJzcnCqtcVhNTncMBypr0dlYiLiIrSIMkRjx44duORkWpvRetu5c+dBn3JNaDgStXo0paULC4KjKj/IpHK8qRENqalI0OoQEhqGrq5uXJAWyNGaV55TKAIkudizdy/M8YkwhmtRYjKLZFcXurocVigfbmtFX34B0nR66MLCUVpahuFTw04njLPLqU4gt44j+pXX1dVj4fxFyDHEYEdpmeDqpB+oI+wYWQZyjJ9pb8e24hKkR0ZhwbxFaGlpk1pxayPKT9UhwKQWBw8ewoYNLogKCEJ3Xh4YM/Fmd5dD0OnRnYFCJXmp91VXoybFArd1G5GUlCJiVZzFl/FuOh6Ddt98800EB4ci2MMLbVnZONrYAC7+jkKNyHLQn/ZwfT2a0zMQ6OYpqA3JWCXZVO6mleU1SkOAlrvr168jNzcfa5avQll8InZXVoLWIc5tjuBiRpcxcowzcVxvfgHMoWFYunQFduzY6ZSCuLWPqVYg58L55psXMbBrABnJKdAGBCHaPxCbCwvBCN7RzCYTeY6uND15eYj09Rdly7SkgdzN1L45oync2iHlp7oRYN+mH/Lhw0dQUVyKqNAwBLt7oiY5RST3msgxONq7uDHYW1WFdJ0eYd6+iNVHoqujEwxOlcL4rX2TbUmh/PjxITTU1MEQFoFQT28Um+JwqK7ugQvlFD4YRFwQaxTlosW0qb4BJ06cEG0p59lb21P+px4EOFedPXsOm/v6kRhrQoRfABI14YIdicqG0ea+iTw31NQk8jiEuHlAHxyKwtw8HDx4UFA7O/O4VK1Abh1a1Mht27oNhQWFMBliEKcJR25MLDqyc4RgPpEmVppNaaKnJikn+v2ymKJjUFxYLLKOSo2NtdXkpzMgcOjgIVRXVSPeZBaMQmn6SKGRZjp6ak8maoGgtep8Zye2FhejOM6MeE2YoNvKTM9Ee1s7LpyXgdUf1B8p5DbUNwimB5NOj+QILSoSk4RmjpuciWpLBgtTQz9QXo7yhEQkhWth0kXCkmxBY0MTTp2SGTg/qC3l7+pBgC4sPd09yM3OgSkqGnGhGhQaTegrKBAa84m0ZF3q6cH7DCppyIw0II5jM8aI8rJy7NmzVz2gj6MmqhfIrdicPXsWHZ1dCA7WwNvdC/9/e+cBXmV5vvG22l2tdlyd1mrr6lC7tUM7tFeXA7eAIgKyERAEySSMQCCQPUgChBEIhJWEGfbeEJayh7IUrQNFsPr8r99jDz0nBmoh5n9Ozv1d17mSc8433vf3npzc7/Pdz/NmJQ+0pePH27bp0/1DcnTJYsMzWpcfUM7FPyOi4XwQt1RW2sKxJZbeL9nbMGhQqq1ctdqONcAltwPc9VMEzkYA6wB3hljtMi4m3vrGJlhl0XCrnjbN9s6t8kTnl1csf/9Wax0t2Y4Ax7qGXQxfMdaUVWVlVpyWYYkx8RYbG2+VlTPswPPPn63peq8GAYIfO3fttnHjSi02Jt6SYuKtLDff1k+Zarur5rjHvK5vmwcsRseWLbMXFi6wXXPm2NrJk600O9d6x8RbXGy8lRJ927M3qm+F1xgqPY0yAocOHbaqufMsLi7Rv+MKBw+xVRPL7LmZM+3A/Pme/EliJVaSupo8B+xiBCGxjJEnhwVwYGKSxcfEW3Z2rm3avMVee+31KBuNM3c3agQ50Wd8VdTSZdXLUSNHWef2nezpjp0tNS7BpuXm2ZaKcveZ19UHkgxnhAXZzimx8datw5PWucOTNmb0WFu/foO9/PIrfvtekfEzf0D1TsMm8O6773mNfVac2759hyf0JMYmWNf2nax39x42dshQr+JBBaK6miwzSSYKP2fECMvp1996PtnFOrRuZxlpmZ7DwQqj1PbFjqHtwxPgVjOinNrs+/bt80WhBvYbYJ3bdrSYLt1sRMogL+nKJIgJUV18z5KHc2D+PL/9XTgwxXp17mqd2rS3lOQUq6qa5+tT0B7aFc23wj/8KGrPhkiA7zKCH9hYli9fYcNy8/07r2enLpaZ1MdmFBa6VY/gR138XTJRRoivnVTmxSr69ujl3+k9u/e0somTbcuWrZ5/Qq6frID/+cRFjSD/T5fNveXcIiHps3R8qZe/yhk8xIYm9bHMPn2tOHWIzR892lZNnOCec6q04EUkAkMkBpsLD4/KLFhgu2bPti0VFbZu8iQXD3OLR9mIwamWkdTXhvbpazmpQ60ov8BKx0/wfxLbd+y0V1+Nrvqawfz1uwjURoAJ84EDB2zZ0uU2ZfIUG1E43PLSMiy9f7INTextwwYMtMqCQlsxYYKtKSvziMuOWUR45rn9jAgP/whI4ju8aJHtraryxWs2TJ3i+RrY1Eozs1yEpyYkWlbKICvIzrUxo8Z4RHzDhmp7USvi1jY0//NrJ0+etIOHDtmqVWts2rRyt4zkZ2RZZvJAg31+8gCbkpfv60WsLpvogYvtM2bY/nlz/Y5ioCRm4A4jq7xSW7l66lRjfyr0EOjI659sqfGJljkgxYZlZvt1yqdV2OrVa+3Q4cNKkP+fR04HNHQCx44d8xWGZ86cZSVjS6wwJ8+yBw22IYlJlt23n5WkZ9iSknH+nbl+yhQvUUtJQoIiWPuIogffYdw5a5ZtLi938c1388zhw61gYIql906y9L79LXdoug0vKLKyiZNs4cLFtmfPXnvj+PGGjvmc+heVgjyYFLdysI2Ulk60lJTBfrs6IS7BCoam26iMTBuVlm7jM7Ntcl6+TS8ssqqRxX57m9s9c0aOdJ8i77EP+xZnZFr+kKEWHxNnsbEJNnjwEJs4cZKtXrPWDh85Enxp/S4CInAGAiRkb96yxSoqp1tWdo7FxSVYTK9YTwJlNbqRQ9OsJCPLynLyrKKgwGYPH+EWtPVTp3oJvhlFw90PTr4IFYyK09NtVFa2JffuY7ExcdY7qa+NLB79/j+Ivfvs5MlTZ2iJXj5fAtxteG77Dps9u8ryhxX6bfOYmDhL7T/Ax6Q4Ld3GZmTaxOxcKx9WYLOGj7DFJSW2sbzcFo0tsZnDR9i0YQX+PvuxP5+BQX37W0yvOIuPT7SCwiKbUzXXduzY6ZHA822zjheBhk6AyPT+AwdsydJlNmZMifXrl+z6p29iko3MyLLi9AwbnZ5hpVk5Pnmm/Ou84lFuCVteOsET8SsKCm1Sbp6Ny8yy4rQ01z+I+17PxPh3dnp6pk2dVm4bN1YbEwFtZycQ9YKc25hYRk6desdvnRMhq960yaaVV1hubr71SeprT3frYW1bt7OmTR61u++6x1o81sIeb/a4//5Ik0etXZv21qN7D983L2+YlZdX+gyU20NEirhdxDV0y/TsH0a9KwIBAvyt8A+Dvx3+hrAd7Ni50+bOm2cjRhTbgOSB/qXfsX0na96sud137wPWtPEj1rZVG//94QcbW6sWT1jXzk9ZQnyipaVl2LjxE2zlylVeFYRbpdgY+LvULdMA9Y/mZ/BYwpw7IXv27rVFixfb6DFjbfCgVJ8kde7U2Vo0b2kP3P+QPfRgY+vQpr099MDD/pzXO3fq4nkGBDkQEEuWLHVrDFV7OC+fFcZS37MfzTjqrA2PAH8v7+ufU/b2yZN+V2ntunVWNmmyZWZmW++EJOvWtbu1btXGGj/c1O5pdJ890aKVNWvazH9v9shj1qFdR3umRy8X9IWFRTZr1mxP0qQk6mn9o7/LD/XhiXpBXpMSX+yUHnzh4EHbuXOXC2v83qtXrbZly5bbwoWLbMXyFe7D4nde470N6zf4vhxz8OAhT1TgXNpEQATOnwD/OIi0Hjl61Pbs2WNbt27zqMuaNWv9b3Hx4iW+UA0VBfgdsYb4Xrduvde2xaK2f/+Bf+dtaMGt8x+Rcz8DgvnNt96yF196yfbu22fbnn3Wqqs3eW4Pi/UExo/vVcaRB6+T+8N+JAFzHAEPxL02ERCBuiGAKEdIk9C+fccO/+5cv269V2phIbBFixbbyhUrXffw+/JlK2zN6jW2YcNG94Xv2r3bDh8+Ym+8cdyFft20KnrOIkEePWOtnoqACIiACIiACIiACIQhAQnyMBwUNUkEREAEREAEREAERCB6CEiQR89Yq6ciIAIiIAIiIAIiIAJhSECCPAwHRU0SAREQAREQAREQARGIHgIS5NEz1uqpCIiACIiACIiACIhAGBKQIA/DQVGTREAEREAEREAEREAEooeABHn0jLV6KgIiIAIiIAIiIAIiEIYEJMjDcFDUJBEQAREQAREQAREQgeghIEEePWOtnoqACIiACIiACIiACIQhAQnyMBwUNUkEREAEREAEREAERCB6CEiQR89Yq6ciIAIiIAIiIAIiIAJhSECCPAwHRU0SAREQAREQAREQARGIHgIS5NEz1uqpCIiACIiACIiACIhAGBKQIA/DQVGTREAEREAEREAEREAEooeABHn0jLV6KgIiIAIiIAIiIAIiEIYEJMjDcFDUJBEQAREQAREQAREQgeghIEEePWOtnoqACIiACIiACIiACIQhAQnyMBwUNUkEREAEREAEREAERCB6CEiQR89Yq6ciIAIiIAIiIAIiIAJhSECCPAwHRU0SARGIHAL//Oc/bfny5TZ06FDr1q2bde/e3QYMGGALFy6stRPPPfecjR8/3vdl/8TERCsqKrLDhw/Xuv9H8eK+ffusvLzcevXqZfHx8TZx4sRaL3P06FFbtGiRt5G25ufn28mTJ2vdVy+KgAiIgAicOwEJ8nNnpyNFQAREwPbv3285OTn2k5/8xD72sY/ZJz7xCfv2t79tffr0sVOnTtl7770XQmnSpEl23333+b7s/7Wvfc3+/ve/2+bNm0P2+yifMIHo2rWrff7zn7cvf/nL1qpVq1ov9+yzz9qQIUO8jfTrtttuszfeeKPWffWiCIiACIjAuROQID93djpSBERABD4gyBHZF1xwgbVp08Zeeukle+edd0IoIXBvvPFGCfIQKnoiAiIgAtFNQII8usdfvRcBEThPAsER8k9+8pN20UUX2YUXXmiNGjVyu0cgovzuu+/aiRMnrEuXLh5xDuynCPl5DoAOFwEREIEGQECCvAEMorogAiLw/0cgWJBffPHFdvXVV9vnPvc5+/Wvf21ZWVn24osveuMQ43v37rWHHnrI2O+aa66xL3zhCx+wrCDc33zzTdu5c6ctXrzYKisrbdq0af5z/vz5/vprr73m5/zXv/5l27dvt+nTpxtWmBUrVtjBgwdP22RefvllW7dunR/LeVauXGnHjx+3ZcuW1YllhbbS/1WrVtmMGTNsypQp3tZ58+bZ1q1bDX998IZ95+233/Y+LF261NvFMRUVFbZgwQLDIhPoG8fBgfPgcS8rK7O1a9faoUOHjGPp89SpU/3nxo0bT3MOvp5+FwEREIFIISBBHikjpXaKgAiEJYFgQY53/K9//at95Stfse9///tuW+F9NsQxIhIfNlHxf/zjH/b1r3/9A4Icwbp79273brPvt771Lbv00kv9569+9StPHt20aZMFIu6pqal2+eWXe1T+3nvvtcmTJxtCHfGLAG/ZsqV985vftMsuu8yaNGlie/bsqRNBHpg4jBo1yho3bmzf/e53/e4Aff/5z39ucXFxPhlgv8BGQijJq9h28M3DizsFcPjtb39rSUlJVl1d7X3jmAMHDnhCacCb36JFCxfhsKPPX/ziF/0cnTp1srlz556eiASup58iIAIiECkEJMgjZaTUThEQgbAkECzIr7jiCo+A//CHP3QBfMstt9i2bdtcYCIu+/fv7/5xxPrTTz/toj3YsoKQ3rVrl7Vr185++tOf2pVXXmm33nqr/eUvf7GbbrrJhfmPfvQjr4zy/PPPuwWG6PQzzzxjX/rSl1yktm7d2o4cOeKR67y8PH+NiDxifc6cOR6BrosIORH89PR0n2B873vf8zsDd911l/3xj3+06667zq699lrr0aOHi/+AKCeSTWUXJhbcIUC433333fazn/3MJw281rt3bxfyDDbRcJJjEeQf//jH/ZwPPPCA0cf777/ffvGLX3hiKpOBtm3bOjui6tpEQAREINIISJBH2oipvSIgAmFFIFiQI0ybNWtmf/vb31w8XnXVVVZVVWWvvvqq2zEefPBBF9m//OUvbdiwYS7OgwU5fnNsJ0SAEfWI24yMDBs5cqQL+G984xv22c9+1u644w6PCGPvIPLONYim8z7nLikpMcR406ZN7VOf+pQLX8oysi+iP7jKCpVWiE6zf80HJRmpCIOgD66yQqR79uzZPllgIvCDH/zA2rdvb6NHj7bs7Gx7/PHH/RiEd0pKilebQZRjuUGAX3/99X4ngfPTVnz1vIb3HnZE3dmYWPTr1+90AiyCnSj5uHHjvHQkUXjEOBYhJixjx451ER9WHxA1RgREQAQ+BAEJ8g8BSbuIgAiIwJkIBAtyItqPPfaYYaH4/e9/71YMfOTUHieS/eMf/9i+853v2J133umea0RksCCnKgt1v6llTsQ3LS3NfdTYT/BYEy1HACN0iU4Hapfzk305H/YPbDM333yzEbG/5JJLLCYmxtasWXO6C8GCPBB9pjJMzQcinMh0wDISKHuIsM/NzfX9eZ9oNV71119/3SPwiHUsJYHIPK9jxVmyZInbeJ544gkrLCx0SwringkFQpvJBuI+ISHB21pTkDMRwTceSJRdv369EZVnIkJfiZzjOdcmAiIgApFGQII80kZM7RUBEQgrAjUFOcKSKPEjjzziFhOENYmLJF0ilolgUwN85syZLqCDBTl1y4l6s3APXm8SNHmNB0L9nnvucQF/ww03uLXjhRdecBaIXdrx5JNPuqcazznebPznRNmJTAdELAfUFOQBUY64rvngvZqCHNHLgkKBfR999FG3i2Ax4YGfGxsKHu8//OEPhuedfiHM8cfzQGy/9dZbLtRJXu3cubNHuhHy8GGrKcipl75jx47TixPxO3Yd7DEBjoh0bSIgAiIQaQQkyCNtxNReERCBsCJQU5AjGmfNmuVeaQQpghhfNNYNnuPlJrpcmyAnEo5wRaBiUxk4cKAnNWLNwAaCfxyhTaQ9NjbW8JGzcRz1zrHB4Fsnso2IJtrMfgjg4C1YkBOVxq9OVLrmAy/7n//8Z/dpB1tWiPZjMwkIeRZF4jlCmge2HZJIP/OZz3g0H+861WaOHTvmdwqKi4tt0KBBzoW+MYn5zW9+Y5SNZBLBHQa2moKcawRsN7xP1ZrBgwcbExQmIVS2oW3aREAERCDSCEiQR9qIqb0iIAJhRaCmIMc2QUSYKDkRcWwsiHAENWUOn3rqKU+urE2QI8axliBIsaVQhYTjSQJF4AZql9cmyImijx8/3i1QeGp5AAAHZUlEQVQceLGJXiO0sbYQcQ8kVgIvWJCfy0qdJIXSxoAgZ6JBO2t7YDOhugzimeuSzMpdArzf2EwCfUNQI/rPJshhB6NAX+gX3ngWWqINJIlSWUabCIiACEQaAQnySBsxtVcERCCsCNQmyKmsQt3s3/3udx65pTY5IpQESpI0qVBSmyBHTOIfx7aBmMczTjS9tLTUo+VEkRGuNQU5YhwfOSL5q1/9qkem8YOzL75y7C7YWgLb+Qpy/OIIawQ517n99ttt+PDhtT6ooU6Enhri3CmgTUxMOAbfe6BvJHt++tOfPqsg79Chg2HTCax+SkUazkkCLOUW//SnP/l1Av3UTxEQARGIFAIS5JEyUmqnCIhAWBI4kyBn8Zo2bdq4QCayTbQbCwkCFJ91bYIc8Up9bvbHnkJEmMVyuAYVRBDigfcoH0gpRTasHSSPItiJMCNuscpwPYQq+65evfo0v/MV5FwXqwgRbR5UYuGceLrxvnOHAN88DzhgM2HhoObNm/v++L2xtpDsisDGnkNlGQQ5CZoI70C/gqus4KEnYZTFjbDpbNiwwRNK6TPJsnjZN2/efLqf+kUEREAEIoWABHmkjJTaKQIiEJYEziTIiYLn5OS41YRIMsIY6wrVUo4ePVqrIGdFSpIgiaTjy+7Zs6cLTHzRCGAi7bxHeUV817yOoCUCjtcbYYrVhfKDmZmZvmAPHvFAVZZXXnnlA2UPz8WyQq1vJhZE8jk/kWmuSRScpErEN3506q4jytmf6igPP/zwaVsKEXYmG9QmxytP6UVKNFJFhv3gh7gPFuSBBYcQ+Vh7CgoKPKGTiDs+chhhjdEmAiIgApFGQII80kZM7RUBEQgrAmcS5FQUQTgiohHkiFcWuSGCeyZBTjIotcrxQ1MykEolVBFp1KiRJywiWrF8ECWnbjeJkSRIIn4R1thciEJzbaLSJHkicIk8U5qQsoNEl883Qs4AEHHHF88kgPZQI5ySj7Q/sGAPr2HBwVIDC5JEAzYXyjKSpIn4ZuEjfOAkdWKBwYJCn2hvsCCnL/SbxYG4kxCoXU6UnvrlW7ZsCakmE1YfFDVGBERABM5CQIL8LHD0lgiIgAj8NwJnEuT4nLdv3+4L9lALHJFZWVnp9pIzCXLORWImApWkR5a8J7qNAMUrXVFR4TXMEcGI7yZNmrjQJpqO6Ea4E2Xn2ohghDc1v9mf5EksNNhKiKhjGSHafi4Rcpgg+FnECMFNZRcmHCyExAQEuw1R8+TkZI/ik4RJjfUJEyZ430hQ5YFwx14zYMAAnzxQUxzrCX2jjjtR9WBBju8cDiSKYsfB+sKDfhcVFXnCZ8Bf/t/GTe+LgAiIQDgRkCAPp9FQW0RABCKOAKX8qLuNT5uIL8KQ+uFsiFaqnBAZ5n2SG0+cOOHCsbq62qPA1Ckn0k0JQxbJQZSzaA6WjpYtW/qxVGxBXBPdJiLOdXgPwct5iVSzKicrXFJ5BH81G4meRN3xomNxYWVMLB3UER8zZowfR1UYrlfbRj+wn9BGzo8FhfazcQ1EP1Fs7DEklBKdp+wjbSc6z90A+hTY6D/t5332g0tqaqpXRqHdrNrZo0cP7xt9pH56sCCnrVR4oYRkx44dfT/ql2OfYaKhTQREQAQilYAEeaSOnNotAiIgAg2cQM065N26dXM7TqDsYQPvvronAiIQRQQkyKNosNVVERABEYgkAhLkkTRaaqsIiMD5EJAgPx96OlYEREAEROAjIyBB/pGh1YlFQATCjIAEeZgNiJojAiIgAiLwPgESQSkdSZlHHnjm8dHLsqJPiAiIQEMjIEHe0EZU/REBERCBBkKAiimIcsoZ8iBiLjHeQAZX3RABEQghIEEegkNPREAEREAEREAEREAERKB+CUiQ1y9vXU0EREAEREAEREAEREAEQghIkIfg0BMREAEREAEREAEREAERqF8CEuT1y1tXEwEREAEREAEREAEREIEQAhLkITj0RAREQAREQAREQAREQATql4AEef3y1tVEQAREQAREQAREQAREIISABHkIDj0RAREQAREQAREQAREQgfolIEFev7x1NREQAREQAREQAREQAREIISBBHoJDT0RABERABERABERABESgfglIkNcvb11NBERABERABERABERABEIISJCH4NATERABERABERABERABEahfAhLk9ctbVxMBERABERABERABERCBEAIS5CE49EQEREAEREAEREAEREAE6peABHn98tbVREAEREAEREAEREAERCCEgAR5CA49EQEREAEREAEREAEREIH6JSBBXr+8dTUREAEREAEREAEREAERCCEgQR6CQ09EQAREQAREQAREQAREoH4JSJDXL29dTQREQAREQAREQAREQARCCEiQh+DQExEQAREQAREQAREQARGoXwIS5PXLW1cTAREQAREQAREQAREQgRACEuQhOPREBERABERABERABERABOqXgAR5/fLW1URABERABERABERABEQghIAEeQgOPREBERABERABERABERCB+iXwf+LTrWIJnaPnAAAAAElFTkSuQmCC;" vertex="1" parent="hDmsqmJ-rxW2WNkvrbdr-1"><mxGeometry x="40" y="850" width="740" height="434" as="geometry"/></mxCell></root></mxGraphModel></diagram><diagram id="0WbNaXXuMzmsKXjfqwro" name="Page-3"><mxGraphModel dx="773" dy="645" grid="1" gridSize="10" guides="1" tooltips="1" connect="1" arrows="1" fold="1" page="1" pageScale="1" pageWidth="850" pageHeight="1100" math="0" shadow="0"><root><mxCell id="_ZfH_H279B0zbzBkursV-0"/><mxCell id="_ZfH_H279B0zbzBkursV-1" parent="_ZfH_H279B0zbzBkursV-0"/><mxCell id="_ZfH_H279B0zbzBkursV-2" value="10" style="ellipse;whiteSpace=wrap;html=1;aspect=fixed;" vertex="1" parent="_ZfH_H279B0zbzBkursV-1"><mxGeometry x="400" y="50" width="80" height="80" as="geometry"/></mxCell><mxCell id="_ZfH_H279B0zbzBkursV-3" value="23" style="ellipse;whiteSpace=wrap;html=1;aspect=fixed;" vertex="1" parent="_ZfH_H279B0zbzBkursV-1"><mxGeometry x="250" y="180" width="80" height="80" as="geometry"/></mxCell><mxCell id="_ZfH_H279B0zbzBkursV-4" value="38" style="ellipse;whiteSpace=wrap;html=1;aspect=fixed;" vertex="1" parent="_ZfH_H279B0zbzBkursV-1"><mxGeometry x="550" y="180" width="80" height="80" as="geometry"/></mxCell><mxCell id="_ZfH_H279B0zbzBkursV-5" value="32" style="ellipse;whiteSpace=wrap;html=1;aspect=fixed;" vertex="1" parent="_ZfH_H279B0zbzBkursV-1"><mxGeometry x="160" y="310" width="80" height="80" as="geometry"/></mxCell><mxCell id="_ZfH_H279B0zbzBkursV-6" value="36" style="ellipse;whiteSpace=wrap;html=1;aspect=fixed;" vertex="1" parent="_ZfH_H279B0zbzBkursV-1"><mxGeometry x="320" y="310" width="80" height="80" as="geometry"/></mxCell><mxCell id="_ZfH_H279B0zbzBkursV-7" value="45" style="ellipse;whiteSpace=wrap;html=1;aspect=fixed;" vertex="1" parent="_ZfH_H279B0zbzBkursV-1"><mxGeometry x="470" y="310" width="80" height="80" as="geometry"/></mxCell><mxCell id="_ZfH_H279B0zbzBkursV-8" value="57" style="ellipse;whiteSpace=wrap;html=1;aspect=fixed;" vertex="1" parent="_ZfH_H279B0zbzBkursV-1"><mxGeometry x="630" y="310" width="80" height="80" as="geometry"/></mxCell></root></mxGraphModel></diagram></mxfile>